<svg xmlns="http://www.w3.org/2000/svg" viewBox="0 0 596.86 132.91"><defs><style>.cls-1{fill:none;stroke:#1d1d1b;stroke-miterlimit:10;}</style></defs><g id="Livello_2" data-name="Livello 2"><g id="Livello_1-2" data-name="Livello 1"><path class="cls-1" d="M33.34,47.92c-.48-1.47-1-3-1.52-4.52L30.2,38.77H13.69c-.53,1.55-1.07,3.09-1.6,4.64s-1,3.05-1.5,4.51H.7c1.6-4.55,3.1-8.76,4.53-12.62s2.83-7.51,4.19-10.92,2.72-6.66,4-9.73,2.7-6.07,4.13-9h9q2.09,4.39,4.11,9t4.07,9.73Q36.85,29.49,39,35.3t4.54,12.62ZM21.9,15.23c-.21.61-.52,1.45-.93,2.5S20.1,20,19.57,21.4s-1.1,2.91-1.75,4.57-1.3,3.41-2,5.24H27.94c-.64-1.83-1.27-3.59-1.88-5.26s-1.18-3.19-1.72-4.58-1-2.6-1.44-3.66S22.15,15.83,21.9,15.23Z"/><path class="cls-1" d="M46.15,31.88a19,19,0,0,1,1.13-6.56,15.31,15.31,0,0,1,8.45-9,17.16,17.16,0,0,1,7-1.34,22.84,22.84,0,0,1,4.7.46,23.52,23.52,0,0,1,4.15,1.31L69.64,24a23.37,23.37,0,0,0-2.81-.85,14.4,14.4,0,0,0-3.42-.37,7.24,7.24,0,0,0-6,2.5,10.33,10.33,0,0,0-2,6.59,10.67,10.67,0,0,0,1.86,6.71Q59.14,41,63.78,41a21.57,21.57,0,0,0,3.54-.31,14.6,14.6,0,0,0,3.47-1l1.29,7.44a21.5,21.5,0,0,1-4,1.16,26.55,26.55,0,0,1-5.25.49,19.82,19.82,0,0,1-7.56-1.31,14.29,14.29,0,0,1-5.21-3.57,13.9,13.9,0,0,1-3-5.34A22.66,22.66,0,0,1,46.15,31.88Z"/><path class="cls-1" d="M88.18,15a21.06,21.06,0,0,1,6.71.92,10.41,10.41,0,0,1,4.3,2.62,9.64,9.64,0,0,1,2.29,4.15,20.81,20.81,0,0,1,.67,5.43V47c-1.3.28-3.11.62-5.43,1a51.74,51.74,0,0,1-8.42.58A26.44,26.44,0,0,1,82.66,48a12.17,12.17,0,0,1-4.36-1.79A8.31,8.31,0,0,1,75.49,43a11.27,11.27,0,0,1-1-4.94,9.42,9.42,0,0,1,1.12-4.76,8.74,8.74,0,0,1,3-3.11A13.83,13.83,0,0,1,83,28.49,24.6,24.6,0,0,1,88.06,28a29.25,29.25,0,0,1,3.14.15,14.37,14.37,0,0,1,2.23.39v-.85A5,5,0,0,0,92,24c-.93-.94-2.56-1.4-4.88-1.4a31.52,31.52,0,0,0-4.57.33,19.83,19.83,0,0,0-3.91.95l-1.15-7.32c.52-.16,1.18-.34,2-.52s1.65-.35,2.59-.49,1.92-.26,3-.36A29.74,29.74,0,0,1,88.18,15Zm.73,26.6c.9,0,1.75,0,2.56-.06a18.18,18.18,0,0,0,2-.18v-6.9q-.56-.12-1.65-.24a18.56,18.56,0,0,0-2-.12,18.23,18.23,0,0,0-2.41.15,6.11,6.11,0,0,0-2,.58A3.37,3.37,0,0,0,84,36a3.28,3.28,0,0,0-.49,1.83,3.12,3.12,0,0,0,1.44,3A8,8,0,0,0,88.91,41.58Z"/><path class="cls-1" d="M138.69,46.89c-.82.24-1.75.47-2.81.7s-2.16.41-3.32.58-2.34.29-3.54.39-2.35.16-3.45.16a20.2,20.2,0,0,1-7.07-1.16,14.18,14.18,0,0,1-5.25-3.33A14.41,14.41,0,0,1,110,39a19.87,19.87,0,0,1-1.13-6.93,23.68,23.68,0,0,1,1-7,15.25,15.25,0,0,1,2.81-5.34,12.12,12.12,0,0,1,4.48-3.36,15.11,15.11,0,0,1,6.07-1.15,14.57,14.57,0,0,1,3.39.36,18.65,18.65,0,0,1,3,1V2.05L138.69.59ZM118.13,31.64A11.15,11.15,0,0,0,120,38.41,6.55,6.55,0,0,0,125.63,41c.82,0,1.57,0,2.26-.09a16.25,16.25,0,0,0,1.71-.22V24.13a7.93,7.93,0,0,0-2.23-.91,10.44,10.44,0,0,0-2.77-.37Q118.14,22.85,118.13,31.64Z"/><path class="cls-1" d="M145.7,32.12A19.74,19.74,0,0,1,147,24.65a16.3,16.3,0,0,1,3.45-5.34,14.32,14.32,0,0,1,4.91-3.23,15.41,15.41,0,0,1,5.7-1.1q6.84,0,10.8,4.18t4,12.29c0,.53,0,1.11-.07,1.74s-.08,1.19-.12,1.68H155a6.05,6.05,0,0,0,2.63,4.45A10.52,10.52,0,0,0,163.88,41a25.86,25.86,0,0,0,4.91-.46,17.87,17.87,0,0,0,3.93-1.13l1.22,7.38a12.25,12.25,0,0,1-1.95.74c-.81.24-1.72.45-2.71.64s-2.07.33-3.2.45a30.15,30.15,0,0,1-3.42.19,20.26,20.26,0,0,1-7.53-1.28A14.75,14.75,0,0,1,149.82,44a14,14,0,0,1-3.11-5.28A20.92,20.92,0,0,1,145.7,32.12Zm21.35-3.47a9.08,9.08,0,0,0-.4-2.26,5.54,5.54,0,0,0-1-1.95A5.63,5.63,0,0,0,163.85,23a5.85,5.85,0,0,0-2.65-.54,6.2,6.2,0,0,0-2.63.51,5.53,5.53,0,0,0-1.83,1.38,6.23,6.23,0,0,0-1.13,2,14.23,14.23,0,0,0-.58,2.29Z"/><path class="cls-1" d="M200.48,30.9c0-2.92-.38-5-1.13-6.22a4.18,4.18,0,0,0-3.87-1.83q-.85,0-1.77.09c-.61.06-1.2.14-1.77.22V47.92h-9.09v-31c.77-.21,1.68-.42,2.71-.65s2.14-.42,3.3-.61,2.35-.32,3.57-.42,2.42-.15,3.6-.15a15.17,15.17,0,0,1,5.64.88,12.94,12.94,0,0,1,3.57,2.1,17,17,0,0,1,9.15-3,16.07,16.07,0,0,1,6.31,1.06,9.44,9.44,0,0,1,3.93,3,11.44,11.44,0,0,1,2,4.64,30.36,30.36,0,0,1,.55,6V47.92h-9.09v-17c0-2.92-.38-5-1.13-6.22a4.18,4.18,0,0,0-3.87-1.83,10.07,10.07,0,0,0-4.21,1.28,14.77,14.77,0,0,1,.55,3q.12,1.56.12,3.33v17.5h-9.09Z"/><path class="cls-1" d="M245.38,6.57a5,5,0,0,1-1.62,3.93,5.8,5.8,0,0,1-7.63,0,5,5,0,0,1-1.61-3.93,5,5,0,0,1,1.61-3.94,5.8,5.8,0,0,1,7.63,0A5,5,0,0,1,245.38,6.57Zm-.86,41.35h-9.09V15.84h9.09Z"/><path class="cls-1" d="M251.54,31.88a19,19,0,0,1,1.12-6.56,15.39,15.39,0,0,1,8.45-9,17.21,17.21,0,0,1,7-1.34,22.67,22.67,0,0,1,4.69.46,23,23,0,0,1,4.15,1.31L275,24a23.2,23.2,0,0,0-2.8-.85,14.4,14.4,0,0,0-3.42-.37,7.23,7.23,0,0,0-6,2.5,10.33,10.33,0,0,0-2,6.59,10.67,10.67,0,0,0,1.86,6.71c1.24,1.59,3.4,2.38,6.5,2.38a21.54,21.54,0,0,0,3.53-.31,14.82,14.82,0,0,0,3.48-1l1.28,7.44a21.61,21.61,0,0,1-4,1.16,26.62,26.62,0,0,1-5.25.49,19.78,19.78,0,0,1-7.56-1.31,14.33,14.33,0,0,1-5.22-3.57,14,14,0,0,1-3-5.34A22.66,22.66,0,0,1,251.54,31.88Z"/><path class="cls-1" d="M298.81,47.92V5.65h28.55v8h-19v8.3h16.89v7.8H308.33V39.93h20.43v8Z"/><path class="cls-1" d="M362.74,46.89c-.82.24-1.75.47-2.81.7s-2.16.41-3.32.58-2.34.29-3.54.39-2.35.16-3.45.16a20.2,20.2,0,0,1-7.07-1.16,14.18,14.18,0,0,1-5.25-3.33A14.41,14.41,0,0,1,334,39a19.87,19.87,0,0,1-1.13-6.93,23.68,23.68,0,0,1,1-7,15.42,15.42,0,0,1,2.81-5.34,12.21,12.21,0,0,1,4.48-3.36,15.11,15.11,0,0,1,6.07-1.15,14.57,14.57,0,0,1,3.39.36,18.65,18.65,0,0,1,3,1V2.05L362.74.59ZM342.18,31.64a11.15,11.15,0,0,0,1.89,6.77A6.55,6.55,0,0,0,349.68,41c.82,0,1.57,0,2.26-.09a16.25,16.25,0,0,0,1.71-.22V24.13a7.93,7.93,0,0,0-2.23-.91,10.44,10.44,0,0,0-2.77-.37Q342.18,22.85,342.18,31.64Z"/><path class="cls-1" d="M398.67,46.82a50.88,50.88,0,0,1-6,1.26,49.92,49.92,0,0,1-7.69.57,18.31,18.31,0,0,1-6.8-1.09,10.42,10.42,0,0,1-4.3-3.08,12,12,0,0,1-2.26-4.73,25.8,25.8,0,0,1-.67-6V15.84h9.09V32.61c0,2.93.39,5,1.16,6.35s2.22,1.95,4.33,1.95c.65,0,1.34,0,2.08-.09s1.38-.13,1.95-.22V15.84h9.09Z"/><path class="cls-1" d="M405.68,31.88a19,19,0,0,1,1.13-6.56,15.31,15.31,0,0,1,8.45-9A17.16,17.16,0,0,1,422.21,15a22.84,22.84,0,0,1,4.7.46,23.26,23.26,0,0,1,4.15,1.31L429.17,24a23.37,23.37,0,0,0-2.81-.85,14.4,14.4,0,0,0-3.42-.37,7.24,7.24,0,0,0-6,2.5,10.33,10.33,0,0,0-2,6.59,10.67,10.67,0,0,0,1.86,6.71q1.86,2.38,6.5,2.38a21.57,21.57,0,0,0,3.54-.31,14.6,14.6,0,0,0,3.47-1l1.29,7.44a21.5,21.5,0,0,1-4,1.16,26.55,26.55,0,0,1-5.25.49,19.82,19.82,0,0,1-7.56-1.31,14.38,14.38,0,0,1-5.21-3.57,13.9,13.9,0,0,1-3-5.34A22.66,22.66,0,0,1,405.68,31.88Z"/><path class="cls-1" d="M447.71,15a21.06,21.06,0,0,1,6.71.92,10.41,10.41,0,0,1,4.3,2.62A9.64,9.64,0,0,1,461,22.67a20.81,20.81,0,0,1,.67,5.43V47c-1.3.28-3.11.62-5.43,1a51.74,51.74,0,0,1-8.42.58,26.44,26.44,0,0,1-5.64-.55,12.17,12.17,0,0,1-4.36-1.79A8.31,8.31,0,0,1,435,43a11.27,11.27,0,0,1-1-4.94,9.42,9.42,0,0,1,1.12-4.76,8.74,8.74,0,0,1,3-3.11,13.87,13.87,0,0,1,4.33-1.68,24.77,24.77,0,0,1,5.07-.51,29.25,29.25,0,0,1,3.14.15,14.6,14.6,0,0,1,2.23.39v-.85A5,5,0,0,0,451.55,24c-.93-.94-2.56-1.4-4.88-1.4a31.52,31.52,0,0,0-4.57.33,19.83,19.83,0,0,0-3.91.95L437,16.51c.53-.16,1.19-.34,2-.52s1.65-.35,2.59-.49,1.92-.26,3-.36A29.6,29.6,0,0,1,447.71,15Zm.73,26.6c.9,0,1.75,0,2.56-.06a18.18,18.18,0,0,0,2-.18v-6.9q-.56-.12-1.65-.24a18.56,18.56,0,0,0-2-.12,18.23,18.23,0,0,0-2.41.15,6.11,6.11,0,0,0-2,.58A3.37,3.37,0,0,0,443.56,36a3.28,3.28,0,0,0-.49,1.83,3.12,3.12,0,0,0,1.44,3A8,8,0,0,0,448.44,41.58Z"/><path class="cls-1" d="M469.61,7.85l9.09-1.47v9.46h10.92V23.4H478.7V34.69a9,9,0,0,0,1,4.57c.68,1.14,2,1.71,4.06,1.71a16.72,16.72,0,0,0,3-.28,15.07,15.07,0,0,0,2.84-.76L490.9,47a26.29,26.29,0,0,1-3.66,1.16,21.66,21.66,0,0,1-4.94.48,16.27,16.27,0,0,1-6.16-1,9.69,9.69,0,0,1-3.91-2.81,10.42,10.42,0,0,1-2-4.36,25.54,25.54,0,0,1-.58-5.67Z"/><path class="cls-1" d="M506.94,6.57a5,5,0,0,1-1.62,3.93,5.79,5.79,0,0,1-7.62,0,5,5,0,0,1-1.62-3.93,5,5,0,0,1,1.62-3.94,5.79,5.79,0,0,1,7.62,0A5,5,0,0,1,506.94,6.57Zm-.85,41.35H497V15.84h9.09Z"/><path class="cls-1" d="M544.64,31.82a20.88,20.88,0,0,1-1.1,6.92,15,15,0,0,1-3.17,5.37,14.32,14.32,0,0,1-5,3.45,17.74,17.74,0,0,1-12.93,0,14.28,14.28,0,0,1-5-3.45,15.69,15.69,0,0,1-3.23-5.37,19.9,19.9,0,0,1-1.16-6.92,19.2,19.2,0,0,1,1.19-6.89,15.54,15.54,0,0,1,3.29-5.31,14.83,14.83,0,0,1,5-3.42,17.08,17.08,0,0,1,12.68,0,14.48,14.48,0,0,1,5,3.42,15.44,15.44,0,0,1,3.24,5.31A19.65,19.65,0,0,1,544.64,31.82Zm-9.28,0a11.5,11.5,0,0,0-1.67-6.62,5.49,5.49,0,0,0-4.79-2.41,5.55,5.55,0,0,0-4.82,2.41,11.27,11.27,0,0,0-1.71,6.62,11.56,11.56,0,0,0,1.71,6.68A5.51,5.51,0,0,0,528.9,41a5.45,5.45,0,0,0,4.79-2.47A11.79,11.79,0,0,0,535.36,31.82Z"/><path class="cls-1" d="M551.65,16.94a50.88,50.88,0,0,1,6-1.26,49.88,49.88,0,0,1,7.68-.57,18.8,18.8,0,0,1,6.81,1.06,10.23,10.23,0,0,1,4.3,3,11.76,11.76,0,0,1,2.25,4.64,24.53,24.53,0,0,1,.67,6V47.92h-9.08v-17c0-2.92-.39-5-1.16-6.22s-2.22-1.83-4.33-1.83c-.65,0-1.35,0-2.08.09s-1.38.14-2,.22V47.92h-9.09Z"/><path class="cls-1" d="M596.18,38.65q.12,1.47.15,2.07c0,.41,0,.76,0,1a24.49,24.49,0,0,1-.33,3.88,34.74,34.74,0,0,1-.95,4.11,33.05,33.05,0,0,1-1.52,4.15,32.5,32.5,0,0,1-2.08,4l-7.13-1.77a44.28,44.28,0,0,0,1.95-7.57,39.05,39.05,0,0,0,.55-5.85c0-.25,0-.56,0-1s0-.78-.06-1.19,0-.79-.06-1.16,0-.61,0-.73Z"/><path class="cls-1" d="M21.51,122a21.37,21.37,0,0,1-7.69-1.25,14.4,14.4,0,0,1-5.34-3.48,13.84,13.84,0,0,1-3.11-5.31,21.81,21.81,0,0,1-1-6.8V78.85h9.52v25.5a14.21,14.21,0,0,0,.58,4.36,8.1,8.1,0,0,0,1.59,2.93,5.59,5.59,0,0,0,2.44,1.61,9.53,9.53,0,0,0,3.14.49,7.69,7.69,0,0,0,5.64-2.13c1.44-1.43,2.17-3.85,2.17-7.26V78.85H39v26.29a21.23,21.23,0,0,1-1,6.83,13.81,13.81,0,0,1-3.17,5.34,14.19,14.19,0,0,1-5.43,3.45A22.53,22.53,0,0,1,21.51,122Z"/><path class="cls-1" d="M47.49,90.14a50.88,50.88,0,0,1,6-1.26,49.88,49.88,0,0,1,7.68-.57A18.8,18.8,0,0,1,68,89.37a10.23,10.23,0,0,1,4.3,3A11.76,11.76,0,0,1,74.51,97a24.53,24.53,0,0,1,.67,6v18.11H66.1v-17c0-2.92-.39-5-1.16-6.22s-2.22-1.83-4.33-1.83c-.66,0-1.35,0-2.08.09s-1.38.14-2,.22v24.76H47.49Z"/><path class="cls-1" d="M93.36,79.77a5,5,0,0,1-1.61,3.93,5.8,5.8,0,0,1-7.63,0,5.61,5.61,0,0,1,0-7.87,5.8,5.8,0,0,1,7.63,0A5,5,0,0,1,93.36,79.77Zm-.85,41.35H83.42V89h9.09Z"/><path class="cls-1" d="M108.84,121.12q-3.12-6.09-6.34-14.27T96.41,89h9.64q.61,2.37,1.44,5.15t1.72,5.61c.59,1.89,1.18,3.74,1.77,5.52s1.18,3.42,1.75,4.88q.8-2.19,1.71-4.88c.61-1.78,1.22-3.63,1.81-5.52S117.41,96,118,94.19s1-3.57,1.44-5.15h9.4q-2.88,9.63-6.08,17.81t-6.34,14.27Z"/><path class="cls-1" d="M131.24,105.32a19.74,19.74,0,0,1,1.31-7.47A16.3,16.3,0,0,1,136,92.51a14.32,14.32,0,0,1,4.91-3.23,15.42,15.42,0,0,1,5.71-1.1q6.82,0,10.79,4.18t4,12.29q0,.8-.06,1.74c0,.63-.09,1.19-.13,1.68H140.58a6,6,0,0,0,2.62,4.45,10.52,10.52,0,0,0,6.22,1.65,25.86,25.86,0,0,0,4.91-.46,18.14,18.14,0,0,0,3.94-1.13l1.22,7.38a12.42,12.42,0,0,1-2,.74c-.81.24-1.71.45-2.71.64s-2.06.33-3.2.45a30.15,30.15,0,0,1-3.42.19,20.26,20.26,0,0,1-7.53-1.28,14.75,14.75,0,0,1-5.31-3.51,14,14,0,0,1-3.11-5.28A20.92,20.92,0,0,1,131.24,105.32Zm21.35-3.47a9.55,9.55,0,0,0-.39-2.26,5.72,5.72,0,0,0-1-2,5.63,5.63,0,0,0-1.77-1.41,5.85,5.85,0,0,0-2.65-.54,6.23,6.23,0,0,0-2.63.51,5.53,5.53,0,0,0-1.83,1.38,6.21,6.21,0,0,0-1.12,2,12.4,12.4,0,0,0-.58,2.29Z"/><path class="cls-1" d="M187.73,97.09c-.81-.2-1.77-.42-2.87-.64a18,18,0,0,0-3.54-.34,15,15,0,0,0-2,.16,12.38,12.38,0,0,0-1.8.33v24.52h-9.09V90.75a54.89,54.89,0,0,1,5.77-1.62,33,33,0,0,1,7.41-.76q.74,0,1.77.09t2.07.24c.69.1,1.38.23,2.08.37a8.84,8.84,0,0,1,1.76.52Z"/><path class="cls-1" d="M203.34,114.6a9.17,9.17,0,0,0,3.54-.49,1.9,1.9,0,0,0,1-1.89,2.3,2.3,0,0,0-1.34-1.92,25.58,25.58,0,0,0-4.09-1.86q-2.13-.8-3.87-1.65a11.19,11.19,0,0,1-3-2.05,8,8,0,0,1-1.89-2.83,10.47,10.47,0,0,1-.67-4,8.55,8.55,0,0,1,3.35-7.13q3.36-2.62,9.21-2.63a30,30,0,0,1,5.61.52,26,26,0,0,1,4.27,1.13L214,96.91a31.58,31.58,0,0,0-3.45-1,19,19,0,0,0-4.18-.43c-2.84,0-4.27.8-4.27,2.38a2.35,2.35,0,0,0,.19,1,2,2,0,0,0,.73.82,9.73,9.73,0,0,0,1.49.86c.63.31,1.44.65,2.41,1a37,37,0,0,1,4.94,2.19,11.64,11.64,0,0,1,3.08,2.32,7.17,7.17,0,0,1,1.59,2.77,12.09,12.09,0,0,1,.46,3.53,8.12,8.12,0,0,1-3.57,7.18q-3.57,2.44-10.1,2.44a29.4,29.4,0,0,1-7.1-.73,28.18,28.18,0,0,1-3.94-1.23l1.53-7.38a30,30,0,0,0,4.76,1.44A23.44,23.44,0,0,0,203.34,114.6Z"/><path class="cls-1" d="M233.66,79.77A5,5,0,0,1,232,83.7a5.79,5.79,0,0,1-7.62,0,5.59,5.59,0,0,1,0-7.87,5.79,5.79,0,0,1,7.62,0A5,5,0,0,1,233.66,79.77Zm-.85,41.35h-9.09V89h9.09Z"/><path class="cls-1" d="M241,81.05l9.09-1.47V89h10.92V96.6H250.13v11.29a9,9,0,0,0,1,4.57q1,1.71,4.05,1.71a16.72,16.72,0,0,0,3-.28,15.07,15.07,0,0,0,2.84-.76l1.28,7.08a26.29,26.29,0,0,1-3.66,1.16,21.6,21.6,0,0,1-4.94.49,16.25,16.25,0,0,1-6.16-1,9.69,9.69,0,0,1-3.91-2.81,10.54,10.54,0,0,1-2-4.36A25.54,25.54,0,0,1,241,108Z"/><path class="cls-1" d="M297.59,89q-2.76,9.27-5.75,17.38t-6.55,15.74a35.64,35.64,0,0,1-2.56,4.67,14.59,14.59,0,0,1-2.81,3.17,10.05,10.05,0,0,1-3.45,1.83,15.89,15.89,0,0,1-4.49.58,18.91,18.91,0,0,1-6.91-1.28l1.59-7.26a16,16,0,0,0,2.5.67,14.36,14.36,0,0,0,2.32.18,5.08,5.08,0,0,0,3.75-1.31,10.37,10.37,0,0,0,2.23-3.63q-3.1-6.11-6.22-13.69a170.07,170.07,0,0,1-5.86-17H275c.4,1.58.89,3.3,1.44,5.15s1.13,3.72,1.74,5.61,1.24,3.74,1.87,5.52,1.24,3.42,1.81,4.88q.8-2.19,1.65-4.88c.57-1.78,1.14-3.63,1.69-5.52s1.08-3.76,1.59-5.61,1-3.57,1.38-5.15Z"/><path class="cls-1" d="M336.93,122q-10.31,0-15.71-5.74T315.82,100a25,25,0,0,1,1.65-9.37,20.11,20.11,0,0,1,4.52-7,18.73,18.73,0,0,1,6.83-4.3,24.54,24.54,0,0,1,8.6-1.47,28,28,0,0,1,4.88.4,32.05,32.05,0,0,1,3.84.92,19.44,19.44,0,0,1,2.75,1.06c.73.37,1.26.65,1.58.86l-2.74,7.68A23.22,23.22,0,0,0,343.18,87a22,22,0,0,0-5.88-.73A13.17,13.17,0,0,0,333,87a9.73,9.73,0,0,0-3.72,2.35,11.68,11.68,0,0,0-2.6,4.18,17.55,17.55,0,0,0-1,6.22,22,22,0,0,0,.64,5.46,11.53,11.53,0,0,0,2.07,4.36,10,10,0,0,0,3.75,2.9,13.4,13.4,0,0,0,5.61,1.07,26.07,26.07,0,0,0,3.73-.24c1.09-.17,2.07-.36,2.92-.58a15.23,15.23,0,0,0,2.26-.77c.65-.28,1.24-.55,1.77-.79l2.62,7.63a22.35,22.35,0,0,1-5.67,2.19A33.11,33.11,0,0,1,336.93,122Z"/><path class="cls-1" d="M368.71,88.18a21,21,0,0,1,6.71.92,10.41,10.41,0,0,1,4.3,2.62A9.64,9.64,0,0,1,382,95.87a20.39,20.39,0,0,1,.67,5.43v18.91c-1.3.28-3.11.62-5.43,1a51.74,51.74,0,0,1-8.42.58,27.14,27.14,0,0,1-5.64-.54,12.36,12.36,0,0,1-4.36-1.8,8.31,8.31,0,0,1-2.81-3.27,11.27,11.27,0,0,1-1-4.94,9.32,9.32,0,0,1,1.13-4.76,8.66,8.66,0,0,1,3-3.11,13.77,13.77,0,0,1,4.33-1.68,24.6,24.6,0,0,1,5.06-.51,29.11,29.11,0,0,1,3.14.15,13,13,0,0,1,2.23.4v-.86a5,5,0,0,0-1.41-3.72c-.93-.94-2.56-1.4-4.88-1.4a31.52,31.52,0,0,0-4.57.33,19.54,19.54,0,0,0-3.9,1L358,89.71c.52-.16,1.19-.34,2-.52s1.65-.35,2.59-.49,1.92-.26,3-.36A29.74,29.74,0,0,1,368.71,88.18Zm.73,26.6c.9,0,1.75,0,2.57-.06a18.21,18.21,0,0,0,1.95-.18v-6.9q-.56-.12-1.65-.24a18.56,18.56,0,0,0-2-.12,18.23,18.23,0,0,0-2.41.15,6,6,0,0,0-2,.58,3.4,3.4,0,0,0-1.35,1.16,3.28,3.28,0,0,0-.48,1.83,3.11,3.11,0,0,0,1.43,3A8,8,0,0,0,369.44,114.78Z"/><path class="cls-1" d="M410.25,97.09c-.81-.2-1.77-.42-2.87-.64a17.84,17.84,0,0,0-3.53-.34,15.26,15.26,0,0,0-2.05.16,12.38,12.38,0,0,0-1.8.33v24.52h-9.09V90.75a54.89,54.89,0,0,1,5.77-1.62,33.16,33.16,0,0,1,7.41-.76q.74,0,1.77.09t2.07.24c.7.1,1.39.23,2.08.37a9.16,9.16,0,0,1,1.77.52Z"/><path class="cls-1" d="M414.52,105.32a19.74,19.74,0,0,1,1.31-7.47,16.3,16.3,0,0,1,3.45-5.34,14.32,14.32,0,0,1,4.91-3.23,15.41,15.41,0,0,1,5.7-1.1q6.84,0,10.8,4.18t4,12.29c0,.53,0,1.11-.07,1.74s-.08,1.19-.12,1.68H423.85a6.05,6.05,0,0,0,2.63,4.45,10.52,10.52,0,0,0,6.22,1.65,25.86,25.86,0,0,0,4.91-.46,17.87,17.87,0,0,0,3.93-1.13l1.22,7.38a11.89,11.89,0,0,1-1.95.74c-.81.24-1.72.45-2.71.64s-2.07.33-3.2.45a30.15,30.15,0,0,1-3.42.19A20.26,20.26,0,0,1,424,120.7a14.75,14.75,0,0,1-5.31-3.51,14,14,0,0,1-3.11-5.28A20.92,20.92,0,0,1,414.52,105.32Zm21.35-3.47a9.08,9.08,0,0,0-.4-2.26,5.54,5.54,0,0,0-1-2,5.63,5.63,0,0,0-1.77-1.41,5.85,5.85,0,0,0-2.65-.54,6.2,6.2,0,0,0-2.63.51,5.53,5.53,0,0,0-1.83,1.38,6.23,6.23,0,0,0-1.13,2,14.23,14.23,0,0,0-.58,2.29Z"/><path class="cls-1" d="M450.15,105.32a19.54,19.54,0,0,1,1.31-7.47,16.12,16.12,0,0,1,3.44-5.34,14.41,14.41,0,0,1,4.91-3.23,15.46,15.46,0,0,1,5.71-1.1q6.83,0,10.79,4.18t4,12.29q0,.8-.06,1.74t-.12,1.68H459.48a6,6,0,0,0,2.62,4.45,10.54,10.54,0,0,0,6.22,1.65,25.78,25.78,0,0,0,4.91-.46,18.14,18.14,0,0,0,3.94-1.13l1.22,7.38a12.65,12.65,0,0,1-1.95.74c-.82.24-1.72.45-2.72.64s-2.06.33-3.2.45a30.15,30.15,0,0,1-3.42.19,20.33,20.33,0,0,1-7.53-1.28,14.84,14.84,0,0,1-5.31-3.51,14,14,0,0,1-3.11-5.28A20.92,20.92,0,0,1,450.15,105.32Zm21.35-3.47a10.1,10.1,0,0,0-.4-2.26,5.56,5.56,0,0,0-1-2,5.63,5.63,0,0,0-1.77-1.41,5.82,5.82,0,0,0-2.65-.54,6.15,6.15,0,0,0-2.62.51,5.33,5.33,0,0,0-1.83,1.38,6,6,0,0,0-1.13,2,12.4,12.4,0,0,0-.58,2.29Z"/><path class="cls-1" d="M506.63,97.09c-.81-.2-1.77-.42-2.87-.64a17.84,17.84,0,0,0-3.53-.34,15.26,15.26,0,0,0-2.05.16,12.38,12.38,0,0,0-1.8.33v24.52h-9.09V90.75a54.89,54.89,0,0,1,5.77-1.62,33.16,33.16,0,0,1,7.41-.76q.73,0,1.77.09t2.07.24c.7.1,1.39.23,2.08.37a9.16,9.16,0,0,1,1.77.52Z"/></g></g></svg>