<svg xmlns="http://www.w3.org/2000/svg" viewBox="0 0 278.02 122.48"><defs><style>.cls-1{fill:none;stroke:#1d1d1b;stroke-miterlimit:10;}</style></defs><g id="Livello_2" data-name="Livello 2"><g id="Livello_1-2" data-name="Livello 1"><path class="cls-1" d="M33.34,47.92c-.48-1.47-1-3-1.52-4.52L30.2,38.77H13.69c-.53,1.55-1.07,3.09-1.6,4.64s-1,3.05-1.5,4.51H.7c1.6-4.55,3.1-8.76,4.53-12.62s2.83-7.51,4.19-10.92,2.72-6.66,4-9.73,2.7-6.07,4.13-9h9q2.09,4.39,4.11,9t4.07,9.73Q36.85,29.49,39,35.3t4.54,12.62ZM21.9,15.23c-.21.61-.52,1.45-.93,2.5S20.1,20,19.57,21.4s-1.1,2.91-1.75,4.57-1.3,3.41-2,5.24H27.94c-.64-1.83-1.27-3.59-1.88-5.26s-1.18-3.19-1.72-4.58-1-2.6-1.44-3.66S22.15,15.83,21.9,15.23Z"/><path class="cls-1" d="M46.15,31.88a19,19,0,0,1,1.13-6.56A15.63,15.63,0,0,1,50.54,20a15.46,15.46,0,0,1,5.19-3.63,17,17,0,0,1,7-1.35,22.84,22.84,0,0,1,4.7.46,23.52,23.52,0,0,1,4.15,1.31L69.64,24a23.37,23.37,0,0,0-2.81-.85,14.4,14.4,0,0,0-3.42-.37,7.24,7.24,0,0,0-6,2.5,10.33,10.33,0,0,0-2,6.59,10.67,10.67,0,0,0,1.86,6.71Q59.14,41,63.78,41a21.57,21.57,0,0,0,3.54-.31,14.6,14.6,0,0,0,3.47-1l1.29,7.44a21.5,21.5,0,0,1-4,1.16,26.55,26.55,0,0,1-5.25.49,19.82,19.82,0,0,1-7.56-1.31,14.29,14.29,0,0,1-5.21-3.57,13.9,13.9,0,0,1-3-5.34A22.66,22.66,0,0,1,46.15,31.88Z"/><path class="cls-1" d="M88.18,15a21.06,21.06,0,0,1,6.71.92,10.41,10.41,0,0,1,4.3,2.62,9.64,9.64,0,0,1,2.29,4.15,20.39,20.39,0,0,1,.67,5.43V47c-1.3.28-3.11.62-5.43,1a51.74,51.74,0,0,1-8.42.58A26.44,26.44,0,0,1,82.66,48a12.17,12.17,0,0,1-4.36-1.79A8.31,8.31,0,0,1,75.49,43a11.27,11.27,0,0,1-1-4.94,9.42,9.42,0,0,1,1.12-4.76,8.82,8.82,0,0,1,3-3.11A13.83,13.83,0,0,1,83,28.49,24.6,24.6,0,0,1,88.06,28a29.25,29.25,0,0,1,3.14.15,13.14,13.14,0,0,1,2.23.4v-.86A5,5,0,0,0,92,24c-.93-.94-2.56-1.4-4.88-1.4a31.52,31.52,0,0,0-4.57.33,19.83,19.83,0,0,0-3.91.95l-1.15-7.32c.52-.16,1.18-.34,2-.52s1.65-.35,2.59-.49,1.92-.26,3-.36A29.74,29.74,0,0,1,88.18,15Zm.73,26.6c.9,0,1.75,0,2.56-.06a18.18,18.18,0,0,0,2-.18v-6.9q-.56-.12-1.65-.24a18.56,18.56,0,0,0-2-.12,18.23,18.23,0,0,0-2.41.15,6.11,6.11,0,0,0-2,.58A3.37,3.37,0,0,0,84,36a3.28,3.28,0,0,0-.49,1.83,3.12,3.12,0,0,0,1.44,3A8,8,0,0,0,88.91,41.58Z"/><path class="cls-1" d="M138.69,46.89c-.82.24-1.75.47-2.81.7s-2.16.41-3.32.58-2.34.29-3.54.39-2.35.16-3.45.16a20.2,20.2,0,0,1-7.07-1.16,14.05,14.05,0,0,1-5.25-3.33A14.41,14.41,0,0,1,110,39a19.87,19.87,0,0,1-1.13-6.93,23.68,23.68,0,0,1,1-7,15.25,15.25,0,0,1,2.81-5.34,12,12,0,0,1,4.48-3.35,14.94,14.94,0,0,1,6.07-1.16,14.57,14.57,0,0,1,3.39.36,18.65,18.65,0,0,1,3,1V2.05L138.69.59ZM118.13,31.64A11.15,11.15,0,0,0,120,38.41,6.52,6.52,0,0,0,125.63,41c.82,0,1.57,0,2.26-.09a16.25,16.25,0,0,0,1.71-.22V24.13a7.93,7.93,0,0,0-2.23-.91,10.44,10.44,0,0,0-2.77-.37Q118.14,22.85,118.13,31.64Z"/><path class="cls-1" d="M145.7,32.12A19.74,19.74,0,0,1,147,24.65a16.3,16.3,0,0,1,3.45-5.34,14.32,14.32,0,0,1,4.91-3.23,15.41,15.41,0,0,1,5.7-1.1q6.84,0,10.8,4.18t4,12.29c0,.53,0,1.11-.07,1.74s-.08,1.19-.12,1.68H155a6.05,6.05,0,0,0,2.63,4.45A10.52,10.52,0,0,0,163.88,41a25.86,25.86,0,0,0,4.91-.46,17.87,17.87,0,0,0,3.93-1.13l1.22,7.38a12.25,12.25,0,0,1-1.95.74c-.81.24-1.72.45-2.71.64s-2.07.33-3.2.45a30.15,30.15,0,0,1-3.42.19,20.26,20.26,0,0,1-7.53-1.28A14.75,14.75,0,0,1,149.82,44a14,14,0,0,1-3.11-5.28A20.92,20.92,0,0,1,145.7,32.12Zm21.35-3.47a9.08,9.08,0,0,0-.4-2.26,5.54,5.54,0,0,0-1-1.95,5.47,5.47,0,0,0-1.77-1.4,5.71,5.71,0,0,0-2.65-.55,6.2,6.2,0,0,0-2.63.51,5.53,5.53,0,0,0-1.83,1.38,6.23,6.23,0,0,0-1.13,2,14.23,14.23,0,0,0-.58,2.29Z"/><path class="cls-1" d="M200.48,30.9c0-2.92-.38-5-1.13-6.22a4.18,4.18,0,0,0-3.87-1.83q-.85,0-1.77.09c-.61.06-1.2.14-1.77.22V47.92h-9.09v-31c.77-.21,1.68-.42,2.71-.65s2.14-.42,3.3-.61,2.35-.32,3.57-.42,2.42-.15,3.6-.15a15.17,15.17,0,0,1,5.64.88,12.94,12.94,0,0,1,3.57,2.1,17,17,0,0,1,9.15-3,16.07,16.07,0,0,1,6.31,1.06,9.44,9.44,0,0,1,3.93,3,11.44,11.44,0,0,1,2,4.64,30.36,30.36,0,0,1,.55,6V47.92h-9.09v-17c0-2.92-.38-5-1.13-6.22a4.18,4.18,0,0,0-3.87-1.83,10.07,10.07,0,0,0-4.21,1.28,14.77,14.77,0,0,1,.55,3q.12,1.56.12,3.33v17.5h-9.09Z"/><path class="cls-1" d="M245.38,6.57a5,5,0,0,1-1.62,3.93,5.8,5.8,0,0,1-7.63,0,5,5,0,0,1-1.61-3.93,5,5,0,0,1,1.61-3.94,5.8,5.8,0,0,1,7.63,0A5,5,0,0,1,245.38,6.57Zm-.86,41.35h-9.09V15.84h9.09Z"/><path class="cls-1" d="M251.54,31.88a19,19,0,0,1,1.12-6.56A15.65,15.65,0,0,1,255.93,20a15.42,15.42,0,0,1,5.18-3.63,17,17,0,0,1,7-1.35,22.67,22.67,0,0,1,4.69.46,23,23,0,0,1,4.15,1.31L275,24a23.2,23.2,0,0,0-2.8-.85,14.4,14.4,0,0,0-3.42-.37,7.23,7.23,0,0,0-6,2.5,10.33,10.33,0,0,0-2,6.59,10.67,10.67,0,0,0,1.86,6.71c1.24,1.59,3.4,2.38,6.5,2.38a21.54,21.54,0,0,0,3.53-.31,14.82,14.82,0,0,0,3.48-1l1.28,7.44a21.61,21.61,0,0,1-4,1.16,26.62,26.62,0,0,1-5.25.49,19.78,19.78,0,0,1-7.56-1.31,14.33,14.33,0,0,1-5.22-3.57,14,14,0,0,1-3-5.34A22.66,22.66,0,0,1,251.54,31.88Z"/><path class="cls-1" d="M5,121.12V78.85H33.28v8H14.49v8.85H31.2v8H14.49v17.44Z"/><path class="cls-1" d="M68.78,105a20.63,20.63,0,0,1-1.1,6.92,15,15,0,0,1-3.17,5.37,14.28,14.28,0,0,1-5,3.45A16.66,16.66,0,0,1,53,122a16.45,16.45,0,0,1-6.43-1.22,14.28,14.28,0,0,1-5-3.45,15.71,15.71,0,0,1-3.24-5.37A19.9,19.9,0,0,1,37.24,105a19.2,19.2,0,0,1,1.19-6.89,15.56,15.56,0,0,1,3.3-5.31,14.94,14.94,0,0,1,5-3.42A16.13,16.13,0,0,1,53,88.18a16.37,16.37,0,0,1,6.38,1.22,14.62,14.62,0,0,1,5,3.42,15.42,15.42,0,0,1,3.23,5.31A19.65,19.65,0,0,1,68.78,105Zm-9.27,0a11.42,11.42,0,0,0-1.68-6.62A5.48,5.48,0,0,0,53,96a5.56,5.56,0,0,0-4.82,2.41,11.27,11.27,0,0,0-1.7,6.62,11.56,11.56,0,0,0,1.7,6.68A5.52,5.52,0,0,0,53,114.17a5.43,5.43,0,0,0,4.79-2.47A11.71,11.71,0,0,0,59.51,105Z"/><path class="cls-1" d="M74.27,105.08a19,19,0,0,1,1.13-6.56,15.63,15.63,0,0,1,3.26-5.36,15.46,15.46,0,0,1,5.19-3.63,17,17,0,0,1,7-1.35,22.84,22.84,0,0,1,4.7.46A23.52,23.52,0,0,1,99.65,90l-1.89,7.26A23.37,23.37,0,0,0,95,96.36,14.4,14.4,0,0,0,91.53,96a7.24,7.24,0,0,0-6,2.5,10.33,10.33,0,0,0-2,6.59,10.67,10.67,0,0,0,1.86,6.71q1.86,2.38,6.5,2.38a21.57,21.57,0,0,0,3.54-.31,14.6,14.6,0,0,0,3.47-1l1.29,7.44a21.5,21.5,0,0,1-4,1.16A26.55,26.55,0,0,1,91,122a19.82,19.82,0,0,1-7.56-1.31,14.38,14.38,0,0,1-5.21-3.57,13.9,13.9,0,0,1-3-5.34A22.66,22.66,0,0,1,74.27,105.08Z"/><path class="cls-1" d="M133.68,120a52.57,52.57,0,0,1-6,1.25,50,50,0,0,1-7.69.58,18.3,18.3,0,0,1-6.8-1.1,10.33,10.33,0,0,1-4.3-3.08,12,12,0,0,1-2.26-4.73,25.28,25.28,0,0,1-.67-6V89h9.09v16.77q0,4.39,1.16,6.35t4.33,2q1,0,2.07-.09c.74-.06,1.39-.13,2-.22V89h9.08Z"/><path class="cls-1" d="M151.43,114.6a9.17,9.17,0,0,0,3.54-.49,1.9,1.9,0,0,0,1-1.89,2.31,2.31,0,0,0-1.34-1.92,25.58,25.58,0,0,0-4.09-1.86q-2.13-.8-3.87-1.65a11.4,11.4,0,0,1-3-2,8.13,8.13,0,0,1-1.89-2.84,10.47,10.47,0,0,1-.67-4,8.55,8.55,0,0,1,3.35-7.13q3.36-2.62,9.21-2.63a30,30,0,0,1,5.61.52,26,26,0,0,1,4.27,1.13l-1.58,7.08a31.58,31.58,0,0,0-3.45-1,19,19,0,0,0-4.18-.43c-2.84,0-4.27.8-4.27,2.38a2.35,2.35,0,0,0,.19,1,2,2,0,0,0,.73.82,9.73,9.73,0,0,0,1.49.86c.63.31,1.44.65,2.41,1a37,37,0,0,1,4.94,2.19,11.85,11.85,0,0,1,3.08,2.32,7.17,7.17,0,0,1,1.59,2.77,12.44,12.44,0,0,1,.46,3.53,8.12,8.12,0,0,1-3.57,7.18Q157.9,122,151.37,122a29.4,29.4,0,0,1-7.1-.73,30,30,0,0,1-3.94-1.22l1.53-7.39a30,30,0,0,0,4.76,1.44A23.44,23.44,0,0,0,151.43,114.6Z"/></g></g></svg>