<svg xmlns="http://www.w3.org/2000/svg" viewBox="0 0 272.85 122.48"><defs><style>.cls-1{fill:none;stroke:#1d1d1b;stroke-miterlimit:10;}</style></defs><g id="Livello_2" data-name="Livello 2"><g id="Livello_1-2" data-name="Livello 1"><path class="cls-1" d="M33.34,47.92c-.48-1.47-1-3-1.52-4.52L30.2,38.77H13.69c-.53,1.55-1.07,3.09-1.6,4.64s-1,3.05-1.5,4.51H.7c1.6-4.55,3.1-8.76,4.53-12.62s2.83-7.51,4.19-10.92,2.72-6.66,4-9.73,2.7-6.07,4.13-9h9q2.09,4.39,4.11,9t4.07,9.73Q36.85,29.49,39,35.3t4.54,12.62ZM21.9,15.23c-.21.61-.52,1.45-.93,2.5S20.1,20,19.57,21.4s-1.1,2.91-1.75,4.57-1.3,3.41-2,5.24H27.94c-.64-1.83-1.27-3.59-1.88-5.26s-1.18-3.19-1.72-4.58-1-2.6-1.44-3.66S22.15,15.83,21.9,15.23Z"/><path class="cls-1" d="M66.31,29.5c-.81,3.09-1.68,6.16-2.59,9.21s-1.88,6.12-2.9,9.21H53.74q-1.1-2.56-2.38-6.1T48.7,34.11q-1.38-4.18-2.82-8.85T43.1,15.84h9.58c.32,1.46.68,3.06,1.07,4.79s.8,3.5,1.23,5.33.88,3.67,1.35,5.52,1,3.63,1.44,5.34q.79-2.68,1.56-5.49t1.46-5.52q.7-2.71,1.34-5.25c.43-1.68.8-3.26,1.13-4.72h6.59c.32,1.46.69,3,1.1,4.72s.83,3.44,1.28,5.25.91,3.65,1.4,5.52,1,3.7,1.53,5.49c.49-1.71,1-3.48,1.47-5.34s1-3.69,1.38-5.52.84-3.61,1.23-5.33.74-3.33,1.07-4.79h9.46Q88.42,20.6,87,25.26t-2.81,8.85q-1.38,4.17-2.69,7.71t-2.42,6.1H72q-1.52-4.64-3-9.21T66.31,29.5Z"/><path class="cls-1" d="M105.5,15a21,21,0,0,1,6.71.92,10.35,10.35,0,0,1,4.3,2.62,9.64,9.64,0,0,1,2.29,4.15,20.39,20.39,0,0,1,.67,5.43V47c-1.3.28-3.11.62-5.43,1a51.61,51.61,0,0,1-8.41.58A26.47,26.47,0,0,1,100,48a12.24,12.24,0,0,1-4.36-1.79A8.29,8.29,0,0,1,92.82,43a11.13,11.13,0,0,1-1-4.94A9.42,9.42,0,0,1,93,33.28a8.74,8.74,0,0,1,3-3.11,13.77,13.77,0,0,1,4.33-1.68,24.6,24.6,0,0,1,5.06-.51,29.11,29.11,0,0,1,3.14.15,13,13,0,0,1,2.23.4v-.86a5.06,5.06,0,0,0-1.4-3.72c-.94-.94-2.57-1.4-4.88-1.4a31.66,31.66,0,0,0-4.58.33,19.89,19.89,0,0,0-3.9.95l-1.16-7.32c.53-.16,1.19-.34,2-.52s1.66-.35,2.59-.49,1.92-.26,3-.36A29.88,29.88,0,0,1,105.5,15Zm.74,26.6c.89,0,1.74,0,2.56-.06a18.21,18.21,0,0,0,2-.18v-6.9q-.56-.12-1.65-.24a18.56,18.56,0,0,0-2-.12,18.34,18.34,0,0,0-2.41.15,6.12,6.12,0,0,0-2,.58A3.31,3.31,0,0,0,101.36,36a3.2,3.2,0,0,0-.49,1.83,3.11,3.11,0,0,0,1.43,3A8.05,8.05,0,0,0,106.24,41.58Z"/><path class="cls-1" d="M147,23.89c-.81-.2-1.77-.42-2.86-.64a18,18,0,0,0-3.54-.34,15.26,15.26,0,0,0-2,.16,11.94,11.94,0,0,0-1.79.33V47.92h-9.09V17.54a56.62,56.62,0,0,1,5.76-1.61,33.16,33.16,0,0,1,7.41-.76q.74,0,1.77.09c.69.06,1.38.14,2.08.24s1.38.23,2.07.37a9.16,9.16,0,0,1,1.77.52Z"/><path class="cls-1" d="M181.14,46.89c-.81.24-1.75.47-2.8.7s-2.17.41-3.33.58-2.34.29-3.54.39-2.34.16-3.44.16A20.26,20.26,0,0,1,161,47.56a14.09,14.09,0,0,1-5.24-3.33A14.43,14.43,0,0,1,152.44,39a20.11,20.11,0,0,1-1.13-6.93,23.67,23.67,0,0,1,1-7,15.25,15.25,0,0,1,2.81-5.34,12,12,0,0,1,4.48-3.35,14.91,14.91,0,0,1,6.07-1.16,14.57,14.57,0,0,1,3.39.36,18.55,18.55,0,0,1,3,1V2.05L181.14.59ZM160.59,31.64a11.15,11.15,0,0,0,1.89,6.77A6.52,6.52,0,0,0,168.09,41c.81,0,1.56,0,2.26-.09a15.67,15.67,0,0,0,1.7-.22V24.13a8,8,0,0,0-2.22-.91,10.51,10.51,0,0,0-2.78-.37Q160.59,22.85,160.59,31.64Z"/><path class="cls-1" d="M198.89,41.4a9.17,9.17,0,0,0,3.54-.49,1.9,1.9,0,0,0,1-1.89,2.31,2.31,0,0,0-1.34-1.92A25.58,25.58,0,0,0,198,35.24a41.3,41.3,0,0,1-3.87-1.65,11.19,11.19,0,0,1-3-2.05,8,8,0,0,1-1.89-2.83,10.47,10.47,0,0,1-.67-4A8.55,8.55,0,0,1,192,17.61Q195.36,15,201.21,15a30,30,0,0,1,5.61.52,26,26,0,0,1,4.27,1.13l-1.58,7.08a31.58,31.58,0,0,0-3.45-1,19,19,0,0,0-4.18-.43c-2.84,0-4.27.8-4.27,2.38a2.35,2.35,0,0,0,.19,1,2,2,0,0,0,.73.82,9.73,9.73,0,0,0,1.49.86c.63.31,1.44.65,2.41,1a37,37,0,0,1,4.94,2.19,11.64,11.64,0,0,1,3.08,2.32A7.17,7.17,0,0,1,212,35.63a12.44,12.44,0,0,1,.46,3.53,8.12,8.12,0,0,1-3.57,7.18q-3.57,2.43-10.1,2.44a29.06,29.06,0,0,1-11-2l1.53-7.39a30.24,30.24,0,0,0,4.75,1.44A23.61,23.61,0,0,0,198.89,41.4Z"/><path class="cls-1" d="M231.77,36.71a12.74,12.74,0,0,1,.67-4.24A13.56,13.56,0,0,1,234.23,29a13.9,13.9,0,0,1,2.62-2.74A22.29,22.29,0,0,1,240,24.15a28.32,28.32,0,0,1-2.6-3.83,9,9,0,0,1-1.16-4.48q0-5.37,3.24-8.27t8.9-2.9a14.8,14.8,0,0,1,5,.77,10.37,10.37,0,0,1,3.57,2.07,8.67,8.67,0,0,1,2.17,3.05,9.53,9.53,0,0,1,.73,3.75,10.92,10.92,0,0,1-2.11,6.62,18,18,0,0,1-5.34,4.86l6.87,6.79a22.32,22.32,0,0,0,1.05-3.06,18.53,18.53,0,0,0,.63-3.25l7.56,1a21.08,21.08,0,0,1-.43,2.54,27.3,27.3,0,0,1-.76,2.77c-.31.94-.65,1.88-1,2.81A22,22,0,0,1,265,37.93a57.89,57.89,0,0,1,3.81,4.78A41.2,41.2,0,0,1,272,47.92h-9.3c-.34-.53-.79-1.2-1.36-2a16.85,16.85,0,0,0-1.71-2A22.71,22.71,0,0,1,254,47.16a19.3,19.3,0,0,1-7.27,1.31,20.71,20.71,0,0,1-7.14-1.06,13.14,13.14,0,0,1-4.6-2.75,9.53,9.53,0,0,1-2.48-3.78A12.55,12.55,0,0,1,231.77,36.71Zm8.48-.91a5.19,5.19,0,0,0,.37,1.88,5,5,0,0,0,1.19,1.8,6.27,6.27,0,0,0,2.11,1.34,8.41,8.41,0,0,0,3.12.52,13.28,13.28,0,0,0,4.49-.69,9.69,9.69,0,0,0,3.21-1.79l-9.82-9.76a11.49,11.49,0,0,0-1.67,1,8,8,0,0,0-1.48,1.43,7.25,7.25,0,0,0-1.1,1.85A6.28,6.28,0,0,0,240.25,35.8Zm11.83-21a3.8,3.8,0,0,0-.91-2.51,3.78,3.78,0,0,0-3-1.1,3.86,3.86,0,0,0-3,1.19A4.44,4.44,0,0,0,244,15.41a5.83,5.83,0,0,0,.92,3.08,13.73,13.73,0,0,0,2.36,2.86,13.85,13.85,0,0,0,3.37-2.63A5.66,5.66,0,0,0,252.08,14.75Z"/><path class="cls-1" d="M30.47,78.85H40v42.27H30.47V103.19h-16v17.93H5V78.85h9.52V95h16Z"/><path class="cls-1" d="M79.15,105a20.88,20.88,0,0,1-1.1,6.92,15,15,0,0,1-3.17,5.37,14.28,14.28,0,0,1-5,3.45,16.66,16.66,0,0,1-6.5,1.22A16.45,16.45,0,0,1,57,120.76a14.28,14.28,0,0,1-5-3.45,15.55,15.55,0,0,1-3.24-5.37A19.9,19.9,0,0,1,47.61,105a19.2,19.2,0,0,1,1.19-6.89,15.56,15.56,0,0,1,3.3-5.31,14.94,14.94,0,0,1,5-3.42,16.13,16.13,0,0,1,6.31-1.22,16.37,16.37,0,0,1,6.38,1.22,14.62,14.62,0,0,1,5,3.42A15.42,15.42,0,0,1,78,98.13,19.65,19.65,0,0,1,79.15,105Zm-9.27,0A11.42,11.42,0,0,0,68.2,98.4,5.48,5.48,0,0,0,63.41,96a5.56,5.56,0,0,0-4.82,2.41A11.27,11.27,0,0,0,56.88,105a11.56,11.56,0,0,0,1.71,6.68,5.52,5.52,0,0,0,4.82,2.47,5.43,5.43,0,0,0,4.79-2.47A11.71,11.71,0,0,0,69.88,105Z"/><path class="cls-1" d="M86.16,90.14a50.88,50.88,0,0,1,6-1.26,49.92,49.92,0,0,1,7.69-.57,18.78,18.78,0,0,1,6.8,1.06,10.32,10.32,0,0,1,4.3,3A11.77,11.77,0,0,1,113.19,97a25,25,0,0,1,.67,6v18.11h-9.09v-17c0-2.92-.39-5-1.16-6.22s-2.22-1.83-4.33-1.83q-1,0-2.07.09c-.74.07-1.39.14-2,.22v24.76H86.16Z"/><path class="cls-1" d="M152.11,105a20.88,20.88,0,0,1-1.1,6.92,15,15,0,0,1-3.17,5.37,14.32,14.32,0,0,1-5,3.45,17.74,17.74,0,0,1-12.93,0,14.28,14.28,0,0,1-5-3.45,15.69,15.69,0,0,1-3.23-5.37,19.67,19.67,0,0,1-1.16-6.92,19.2,19.2,0,0,1,1.19-6.89,15.54,15.54,0,0,1,3.29-5.31,15,15,0,0,1,5-3.42,17.11,17.11,0,0,1,12.69,0,14.62,14.62,0,0,1,5,3.42A15.44,15.44,0,0,1,151,98.13,19.65,19.65,0,0,1,152.11,105Zm-9.28,0a11.5,11.5,0,0,0-1.67-6.62A5.49,5.49,0,0,0,136.37,96a5.55,5.55,0,0,0-4.82,2.41,11.27,11.27,0,0,0-1.71,6.62,11.56,11.56,0,0,0,1.71,6.68,5.51,5.51,0,0,0,4.82,2.47,5.45,5.45,0,0,0,4.79-2.47A11.79,11.79,0,0,0,142.83,105Z"/><path class="cls-1" d="M178.46,97.09c-.82-.2-1.77-.42-2.87-.64a18,18,0,0,0-3.54-.34,16.82,16.82,0,0,0-2,.16,12.12,12.12,0,0,0-1.8.33v24.52h-9.09V90.75a55.34,55.34,0,0,1,5.76-1.62,33.19,33.19,0,0,1,7.42-.76c.48,0,1.07,0,1.76.09s1.39.14,2.08.24,1.38.23,2.07.37a9.16,9.16,0,0,1,1.77.52Z"/></g></g></svg>