<svg xmlns="http://www.w3.org/2000/svg" viewBox="0 0 291.65 59.89"><defs><style>.cls-1{fill:none;stroke:#1d1d1b;stroke-miterlimit:10;}</style></defs><g id="Livello_2" data-name="Livello 2"><g id="Livello_1-2" data-name="Livello 1"><path class="cls-1" d="M14.59,48.47q-3.48,0-6.92-.21a48.44,48.44,0,0,1-7.17-1v-41a59.08,59.08,0,0,1,6.41-.82c2.31-.19,4.47-.28,6.46-.28a44.66,44.66,0,0,1,7.41.58,17.79,17.79,0,0,1,5.83,2,10.47,10.47,0,0,1,3.81,3.69,10.87,10.87,0,0,1,1.37,5.65q0,5.06-4.88,8c2.69,1,4.52,2.4,5.49,4.15a11.86,11.86,0,0,1,1.47,5.91q0,6.66-4.85,10T14.59,48.47ZM9.77,22.24h4.64c2.93,0,5-.37,6.28-1.13a3.9,3.9,0,0,0,1.89-3.63,3.75,3.75,0,0,0-1.95-3.6,12.55,12.55,0,0,0-5.73-1l-2.63,0c-.93,0-1.77.07-2.5.15Zm0,7.26V40.42c.69.08,1.44.14,2.26.18s1.71.06,2.68.06a16.41,16.41,0,0,0,6.9-1.22,4.52,4.52,0,0,0,2.62-4.51A4.42,4.42,0,0,0,22,30.75a12.89,12.89,0,0,0-6.28-1.25Z"/><path class="cls-1" d="M50.82,6.56a5,5,0,0,1-1.61,3.94,5.8,5.8,0,0,1-7.63,0A5,5,0,0,1,40,6.56a5,5,0,0,1,1.61-3.93,5.8,5.8,0,0,1,7.63,0A5,5,0,0,1,50.82,6.56ZM50,47.92H40.88V15.84H50Z"/><path class="cls-1" d="M88.52,31.82a20.63,20.63,0,0,1-1.1,6.92,15,15,0,0,1-3.17,5.37,14.28,14.28,0,0,1-5,3.45,16.66,16.66,0,0,1-6.5,1.22,16.45,16.45,0,0,1-6.43-1.22,14.28,14.28,0,0,1-5-3.45,15.71,15.71,0,0,1-3.24-5.37A19.9,19.9,0,0,1,57,31.82a19.2,19.2,0,0,1,1.18-6.89,15.72,15.72,0,0,1,3.3-5.31,14.79,14.79,0,0,1,5-3.42A16.17,16.17,0,0,1,72.78,15a16.34,16.34,0,0,1,6.38,1.22,14.48,14.48,0,0,1,5,3.42,15.42,15.42,0,0,1,3.23,5.31A19.42,19.42,0,0,1,88.52,31.82Zm-9.27,0a11.42,11.42,0,0,0-1.68-6.62,5.48,5.48,0,0,0-4.79-2.41A5.56,5.56,0,0,0,68,25.2a11.34,11.34,0,0,0-1.7,6.62A11.63,11.63,0,0,0,68,38.5,5.52,5.52,0,0,0,72.78,41a5.43,5.43,0,0,0,4.79-2.47A11.71,11.71,0,0,0,79.25,31.82Z"/><path class="cls-1" d="M123.23,43.9q0,7.86-4,11.68t-12.36,3.81a33,33,0,0,1-5.85-.52A35.29,35.29,0,0,1,95.6,57.5l1.58-7.62a28.15,28.15,0,0,0,4.49,1.34,26.66,26.66,0,0,0,5.33.49c2.61,0,4.45-.58,5.53-1.71a6.16,6.16,0,0,0,1.61-4.39V44.45a14.66,14.66,0,0,1-3,1,15.61,15.61,0,0,1-3.38.34q-6.66,0-10.19-3.94T94,30.84a18,18,0,0,1,1.1-6.43,13.69,13.69,0,0,1,3.2-5,14.26,14.26,0,0,1,5.16-3.21,19.8,19.8,0,0,1,6.89-1.12q1.65,0,3.39.15c1.15.1,2.3.23,3.44.39s2.23.36,3.27.58,2,.46,2.77.71Zm-20-13.06q0,7.64,6.16,7.63a8.94,8.94,0,0,0,2.63-.37,10.1,10.1,0,0,0,2.07-.85V22.73c-.45-.08-1-.15-1.58-.21s-1.33-.1-2.14-.1a6.28,6.28,0,0,0-5.37,2.38A9.86,9.86,0,0,0,103.28,30.84Z"/><path class="cls-1" d="M151.11,23.89c-.82-.2-1.77-.42-2.87-.64a18,18,0,0,0-3.54-.34,15,15,0,0,0-2,.16,12.12,12.12,0,0,0-1.8.33V47.92h-9.09V17.54a58.13,58.13,0,0,1,5.76-1.61,33.19,33.19,0,0,1,7.42-.76c.48,0,1.07,0,1.76.09s1.39.14,2.08.24,1.38.23,2.07.37a9.16,9.16,0,0,1,1.77.52Z"/><path class="cls-1" d="M168.43,15a21,21,0,0,1,6.71.92,10.41,10.41,0,0,1,4.3,2.62,9.64,9.64,0,0,1,2.29,4.15,20.39,20.39,0,0,1,.67,5.43V47c-1.3.28-3.11.62-5.43,1a51.74,51.74,0,0,1-8.42.58,26.44,26.44,0,0,1-5.64-.55,12.17,12.17,0,0,1-4.36-1.79A8.31,8.31,0,0,1,155.74,43a11.27,11.27,0,0,1-1-4.94,9.32,9.32,0,0,1,1.13-4.76,8.66,8.66,0,0,1,3-3.11,13.77,13.77,0,0,1,4.33-1.68,24.6,24.6,0,0,1,5.06-.51,29.11,29.11,0,0,1,3.14.15,14.16,14.16,0,0,1,2.23.39v-.85A5,5,0,0,0,172.27,24c-.93-.94-2.56-1.4-4.88-1.4a31.52,31.52,0,0,0-4.57.33,19.54,19.54,0,0,0-3.9.95l-1.16-7.32c.53-.16,1.19-.34,2-.52s1.66-.35,2.59-.49,1.92-.26,3-.36A29.74,29.74,0,0,1,168.43,15Zm.73,26.6c.9,0,1.75,0,2.57-.06a18.21,18.21,0,0,0,2-.18v-6.9q-.56-.12-1.65-.24a18.56,18.56,0,0,0-2-.12,18.23,18.23,0,0,0-2.41.15,6.12,6.12,0,0,0-2,.58A3.4,3.4,0,0,0,164.28,36a3.26,3.26,0,0,0-.48,1.83,3.11,3.11,0,0,0,1.43,3A8,8,0,0,0,169.16,41.58Z"/><path class="cls-1" d="M220.46,31.88a23.49,23.49,0,0,1-.91,6.77,15.41,15.41,0,0,1-2.68,5.25,12.13,12.13,0,0,1-4.4,3.41,14.07,14.07,0,0,1-6,1.22,16.43,16.43,0,0,1-3.53-.36,17.4,17.4,0,0,1-3.18-1V59.21h-9.09V16.94c.82-.25,1.75-.48,2.81-.71s2.17-.41,3.33-.58,2.33-.29,3.53-.39,2.35-.15,3.45-.15a19.83,19.83,0,0,1,7.08,1.18,14.68,14.68,0,0,1,5.24,3.36,14.34,14.34,0,0,1,3.27,5.28A20.31,20.31,0,0,1,220.46,31.88Zm-9.27.24a11,11,0,0,0-1.89-6.74,6.58,6.58,0,0,0-5.61-2.53c-.81,0-1.57,0-2.26.09s-1.26.14-1.71.22V39.57a8.06,8.06,0,0,0,2.23.91,10.94,10.94,0,0,0,2.78.37Q211.2,40.85,211.19,32.12Z"/><path class="cls-1" d="M227.48,47.92V2.05L236.57.59V16a18.72,18.72,0,0,1,2.35-.58,14.92,14.92,0,0,1,2.77-.27,17.23,17.23,0,0,1,6.5,1.06,10.1,10.1,0,0,1,4.15,3,11.81,11.81,0,0,1,2.19,4.64,25.62,25.62,0,0,1,.64,6V47.92h-9.09v-17c0-2.92-.37-5-1.13-6.22s-2.14-1.83-4.17-1.83a11.06,11.06,0,0,0-2.29.22q-1.06.21-1.92.45v24.4Z"/><path class="cls-1" d="M291,15.84q-2.76,9.27-5.75,17.38T278.69,49a35.6,35.6,0,0,1-2.57,4.67,14.59,14.59,0,0,1-2.81,3.17,10.05,10.05,0,0,1-3.45,1.83,15.84,15.84,0,0,1-4.49.58,17.94,17.94,0,0,1-3.94-.4,17.53,17.53,0,0,1-3-.88l1.58-7.26a16,16,0,0,0,2.5.67,14.45,14.45,0,0,0,2.32.18,5.12,5.12,0,0,0,3.76-1.31,10.51,10.51,0,0,0,2.22-3.63q-3.11-6.11-6.22-13.69a170.07,170.07,0,0,1-5.86-17h9.64q.61,2.37,1.44,5.15t1.75,5.61c.61,1.89,1.23,3.74,1.86,5.52s1.24,3.42,1.81,4.88q.8-2.19,1.66-4.88c.57-1.78,1.13-3.63,1.68-5.52s1.08-3.76,1.59-5.61,1-3.57,1.38-5.15Z"/></g></g></svg>