<svg xmlns="http://www.w3.org/2000/svg" viewBox="0 0 360.37 133.09"><defs><style>.cls-1{fill:none;stroke:#1d1d1b;stroke-miterlimit:10;}</style></defs><g id="Livello_2" data-name="Livello 2"><g id="Livello_1-2" data-name="Livello 1"><path class="cls-1" d="M13.19,5.16q9.45,0,14.52,3.33t5.06,10.89q0,7.62-5.13,11T13,33.77H10V47.92H.5V6.26a52.6,52.6,0,0,1,6.59-.85Q10.57,5.16,13.19,5.16Zm.61,8.11c-.69,0-1.37,0-2.05.07L10,13.46v12.2h3q5,0,7.45-1.34c1.66-.9,2.5-2.57,2.5-5a6,6,0,0,0-.64-2.92,4.81,4.81,0,0,0-1.83-1.86,8.19,8.19,0,0,0-2.9-1A24.27,24.27,0,0,0,13.8,13.27Z"/><path class="cls-1" d="M58.51,23.89c-.81-.2-1.77-.42-2.87-.64a17.84,17.84,0,0,0-3.53-.34,15.26,15.26,0,0,0-2,.16,12.38,12.38,0,0,0-1.8.33V47.92H39.17V17.54a57.62,57.62,0,0,1,5.77-1.61,33,33,0,0,1,7.41-.76q.74,0,1.77.09t2.07.24c.69.1,1.38.23,2.08.37a9.16,9.16,0,0,1,1.77.52Z"/><path class="cls-1" d="M94.32,31.82a20.88,20.88,0,0,1-1.1,6.92,15,15,0,0,1-3.17,5.37,14.28,14.28,0,0,1-5,3.45,17.77,17.77,0,0,1-12.94,0,14.28,14.28,0,0,1-5-3.45,15.69,15.69,0,0,1-3.23-5.37,19.9,19.9,0,0,1-1.16-6.92A19.2,19.2,0,0,1,64,24.93a15.54,15.54,0,0,1,3.29-5.31,14.83,14.83,0,0,1,5-3.42A16.13,16.13,0,0,1,78.58,15,16.37,16.37,0,0,1,85,16.2a14.57,14.57,0,0,1,5,3.42,15.42,15.42,0,0,1,3.23,5.31A19.65,19.65,0,0,1,94.32,31.82Zm-9.27,0a11.42,11.42,0,0,0-1.68-6.62,5.49,5.49,0,0,0-4.79-2.41,5.56,5.56,0,0,0-4.82,2.41,11.27,11.27,0,0,0-1.71,6.62,11.56,11.56,0,0,0,1.71,6.68A5.52,5.52,0,0,0,78.58,41a5.45,5.45,0,0,0,4.79-2.47A11.71,11.71,0,0,0,85.05,31.82Z"/><path class="cls-1" d="M115.24.59a19.73,19.73,0,0,1,4.7.52,22.8,22.8,0,0,1,3.29,1l-1.77,7.26a11.54,11.54,0,0,0-2.65-.82,13.67,13.67,0,0,0-2.65-.28,7.52,7.52,0,0,0-2.78.46A4.36,4.36,0,0,0,111.61,10a4.76,4.76,0,0,0-.91,1.89,9.47,9.47,0,0,0-.28,2.38v1.59h11.23V23.4H110.42V47.92h-9.09V14.13q0-6.22,3.51-9.88T115.24.59Z"/><path class="cls-1" d="M125.06,32.12a19.74,19.74,0,0,1,1.31-7.47,16.3,16.3,0,0,1,3.45-5.34,14.32,14.32,0,0,1,4.91-3.23,15.41,15.41,0,0,1,5.7-1.1q6.84,0,10.8,4.18t4,12.29c0,.53,0,1.11-.07,1.74s-.08,1.19-.12,1.68H134.39A6.05,6.05,0,0,0,137,39.32,10.52,10.52,0,0,0,143.24,41a25.86,25.86,0,0,0,4.91-.46,17.87,17.87,0,0,0,3.93-1.13l1.22,7.38a11.89,11.89,0,0,1-2,.74c-.81.24-1.72.45-2.71.64s-2.07.33-3.2.45a30.15,30.15,0,0,1-3.42.19,20.26,20.26,0,0,1-7.53-1.28A14.75,14.75,0,0,1,129.18,44a14,14,0,0,1-3.11-5.28A20.92,20.92,0,0,1,125.06,32.12Zm21.35-3.47a9.08,9.08,0,0,0-.4-2.26,5.54,5.54,0,0,0-1-1.95A5.63,5.63,0,0,0,143.21,23a5.85,5.85,0,0,0-2.65-.54,6.2,6.2,0,0,0-2.63.51,5.53,5.53,0,0,0-1.83,1.38,6.23,6.23,0,0,0-1.13,2,14.23,14.23,0,0,0-.58,2.29Z"/><path class="cls-1" d="M171.42,41.4a9.17,9.17,0,0,0,3.54-.49A1.9,1.9,0,0,0,176,39a2.29,2.29,0,0,0-1.35-1.92,25.73,25.73,0,0,0-4.08-1.87,39.09,39.09,0,0,1-3.88-1.64,11.3,11.3,0,0,1-2.95-2.05,8.16,8.16,0,0,1-1.9-2.83,10.67,10.67,0,0,1-.67-4,8.56,8.56,0,0,1,3.36-7.13Q167.88,15,173.74,15a30,30,0,0,1,5.61.52,26.25,26.25,0,0,1,4.27,1.13L182,23.71a31.58,31.58,0,0,0-3.45-1,19,19,0,0,0-4.18-.43c-2.85,0-4.27.8-4.27,2.38a2.52,2.52,0,0,0,.18,1,2.14,2.14,0,0,0,.74.82,9.73,9.73,0,0,0,1.49.86,25.3,25.3,0,0,0,2.41,1,37,37,0,0,1,4.94,2.19A11.64,11.64,0,0,1,183,32.86a7.3,7.3,0,0,1,1.59,2.77,12.46,12.46,0,0,1,.45,3.53,8.13,8.13,0,0,1-3.56,7.18q-3.57,2.43-10.1,2.44a28.88,28.88,0,0,1-7.11-.74,26.93,26.93,0,0,1-3.93-1.22l1.52-7.38a30.68,30.68,0,0,0,4.76,1.44A23.53,23.53,0,0,0,171.42,41.4Z"/><path class="cls-1" d="M201,41.4a9.14,9.14,0,0,0,3.53-.49,1.88,1.88,0,0,0,1-1.89,2.3,2.3,0,0,0-1.34-1.92,26.37,26.37,0,0,0-4.09-1.87,39.89,39.89,0,0,1-3.87-1.64,11.19,11.19,0,0,1-3-2.05,8.27,8.27,0,0,1-1.89-2.83,10.47,10.47,0,0,1-.67-4,8.58,8.58,0,0,1,3.35-7.13Q197.47,15,203.32,15a30,30,0,0,1,5.62.52,26.25,26.25,0,0,1,4.27,1.13l-1.59,7.08a31.58,31.58,0,0,0-3.45-1A19,19,0,0,0,204,22.3c-2.85,0-4.27.8-4.27,2.38a2.52,2.52,0,0,0,.18,1,2,2,0,0,0,.73.82,10.25,10.25,0,0,0,1.49.86c.63.31,1.44.65,2.41,1a37.19,37.19,0,0,1,5,2.19,11.8,11.8,0,0,1,3.08,2.32,7.15,7.15,0,0,1,1.58,2.77,12.09,12.09,0,0,1,.46,3.53A8.12,8.12,0,0,1,211,46.34q-3.57,2.43-10.09,2.44a28.88,28.88,0,0,1-7.11-.74,27.6,27.6,0,0,1-3.94-1.22l1.53-7.38a30,30,0,0,0,4.76,1.44A23.46,23.46,0,0,0,201,41.4Z"/><path class="cls-1" d="M231.32,6.56a5,5,0,0,1-1.61,3.94,5.8,5.8,0,0,1-7.63,0,5,5,0,0,1-1.62-3.94,5,5,0,0,1,1.62-3.93,5.8,5.8,0,0,1,7.63,0A5,5,0,0,1,231.32,6.56Zm-.85,41.36h-9.09V15.84h9.09Z"/><path class="cls-1" d="M269,31.82a20.88,20.88,0,0,1-1.1,6.92,15,15,0,0,1-3.17,5.37,14.28,14.28,0,0,1-5,3.45,16.66,16.66,0,0,1-6.5,1.22,16.45,16.45,0,0,1-6.43-1.22,14.32,14.32,0,0,1-5-3.45,15.69,15.69,0,0,1-3.23-5.37,19.9,19.9,0,0,1-1.16-6.92,19.2,19.2,0,0,1,1.19-6.89,15.41,15.41,0,0,1,3.3-5.31,14.79,14.79,0,0,1,5-3.42A16.13,16.13,0,0,1,253.28,15a16.37,16.37,0,0,1,6.38,1.22,14.57,14.57,0,0,1,5,3.42,15.42,15.42,0,0,1,3.23,5.31A19.65,19.65,0,0,1,269,31.82Zm-9.27,0a11.42,11.42,0,0,0-1.68-6.62,5.48,5.48,0,0,0-4.79-2.41,5.56,5.56,0,0,0-4.82,2.41,11.27,11.27,0,0,0-1.71,6.62,11.56,11.56,0,0,0,1.71,6.68A5.52,5.52,0,0,0,253.28,41a5.43,5.43,0,0,0,4.79-2.47A11.71,11.71,0,0,0,259.75,31.82Z"/><path class="cls-1" d="M276,16.94a50.88,50.88,0,0,1,6-1.26,49.92,49.92,0,0,1,7.69-.57,18.78,18.78,0,0,1,6.8,1.06,10.23,10.23,0,0,1,4.3,3,11.77,11.77,0,0,1,2.26,4.64,25,25,0,0,1,.67,6V47.92h-9.09v-17c0-2.92-.39-5-1.16-6.22s-2.22-1.83-4.33-1.83c-.65,0-1.34,0-2.08.09s-1.38.14-1.95.22V47.92H276Z"/><path class="cls-1" d="M323.49,15a21,21,0,0,1,6.71.92,10.41,10.41,0,0,1,4.3,2.62,9.64,9.64,0,0,1,2.29,4.15,20.39,20.39,0,0,1,.67,5.43V47c-1.3.28-3.11.62-5.43,1a51.74,51.74,0,0,1-8.42.58A26.44,26.44,0,0,1,318,48a12.17,12.17,0,0,1-4.36-1.79A8.31,8.31,0,0,1,310.8,43a11.27,11.27,0,0,1-1-4.94A9.32,9.32,0,0,1,311,33.28a8.58,8.58,0,0,1,3-3.11,13.77,13.77,0,0,1,4.33-1.68,24.6,24.6,0,0,1,5.06-.51,29.11,29.11,0,0,1,3.14.15,14.16,14.16,0,0,1,2.23.39v-.85A5,5,0,0,0,327.33,24c-.93-.94-2.56-1.4-4.88-1.4a31.52,31.52,0,0,0-4.57.33,19.54,19.54,0,0,0-3.9.95l-1.16-7.32c.52-.16,1.19-.34,2-.52s1.66-.35,2.59-.49,1.92-.26,3-.36A29.74,29.74,0,0,1,323.49,15Zm.73,26.6c.9,0,1.75,0,2.57-.06a18.21,18.21,0,0,0,1.95-.18v-6.9q-.56-.12-1.65-.24a18.56,18.56,0,0,0-2-.12,18.23,18.23,0,0,0-2.41.15,6,6,0,0,0-2,.58A3.4,3.4,0,0,0,319.34,36a3.26,3.26,0,0,0-.48,1.83,3.11,3.11,0,0,0,1.43,3A8,8,0,0,0,324.22,41.58Z"/><path class="cls-1" d="M358.5,48.53a22.64,22.64,0,0,1-6.43-.85,9.43,9.43,0,0,1-3.9-2.23,7.36,7.36,0,0,1-2-3.47,19.11,19.11,0,0,1-.52-4.61V2.05L354.78.59V35.54a11.34,11.34,0,0,0,.19,2.2,3.65,3.65,0,0,0,.7,1.64,3.61,3.61,0,0,0,1.49,1.1,8,8,0,0,0,2.63.55Z"/><path class="cls-1" d="M14.59,121.67q-3.48,0-6.92-.21a48.44,48.44,0,0,1-7.17-1v-41a59.08,59.08,0,0,1,6.41-.82c2.31-.19,4.47-.28,6.46-.28a44.66,44.66,0,0,1,7.41.58,17.79,17.79,0,0,1,5.83,2,10.47,10.47,0,0,1,3.81,3.69,10.87,10.87,0,0,1,1.37,5.65q0,5.05-4.88,8c2.69,1,4.52,2.4,5.49,4.15a11.86,11.86,0,0,1,1.47,5.91q0,6.66-4.85,10T14.59,121.67ZM9.77,95.44h4.64c2.93,0,5-.37,6.28-1.13a3.9,3.9,0,0,0,1.89-3.63,3.72,3.72,0,0,0-1.95-3.59,12.41,12.41,0,0,0-5.73-1l-2.63,0c-.93,0-1.77.07-2.5.15Zm0,7.26v10.92c.69.08,1.44.14,2.26.18s1.71.06,2.68.06a16.41,16.41,0,0,0,6.9-1.22,4.52,4.52,0,0,0,2.62-4.51A4.42,4.42,0,0,0,22,104a12.89,12.89,0,0,0-6.28-1.25Z"/><path class="cls-1" d="M52.41,88.18a21.06,21.06,0,0,1,6.71.92,10.41,10.41,0,0,1,4.3,2.62,9.64,9.64,0,0,1,2.29,4.15,20.39,20.39,0,0,1,.67,5.43v18.91c-1.3.28-3.11.62-5.43,1a51.74,51.74,0,0,1-8.42.58,27.14,27.14,0,0,1-5.64-.54,12.36,12.36,0,0,1-4.36-1.8,8.31,8.31,0,0,1-2.81-3.27,11.27,11.27,0,0,1-1-4.94,9.32,9.32,0,0,1,1.13-4.76,8.63,8.63,0,0,1,3-3.11,13.83,13.83,0,0,1,4.34-1.68,24.6,24.6,0,0,1,5.06-.51,29.25,29.25,0,0,1,3.14.15,14.37,14.37,0,0,1,2.23.39v-.85a5,5,0,0,0-1.41-3.72c-.93-.94-2.56-1.4-4.88-1.4a31.52,31.52,0,0,0-4.57.33,19.83,19.83,0,0,0-3.91,1l-1.15-7.32c.52-.16,1.18-.34,2-.52s1.66-.35,2.59-.49,1.92-.26,3-.36A29.74,29.74,0,0,1,52.41,88.18Zm.73,26.6c.9,0,1.75,0,2.56-.06a18.18,18.18,0,0,0,2-.18v-6.9q-.55-.12-1.65-.24a18.56,18.56,0,0,0-2-.12,18.23,18.23,0,0,0-2.41.15,6.11,6.11,0,0,0-2,.58,3.37,3.37,0,0,0-1.34,1.16,3.26,3.26,0,0,0-.49,1.83,3.12,3.12,0,0,0,1.44,3A8,8,0,0,0,53.14,114.78Z"/><path class="cls-1" d="M73.09,105.08a18.77,18.77,0,0,1,1.13-6.56,15.31,15.31,0,0,1,8.45-9,17.16,17.16,0,0,1,7-1.34,22.84,22.84,0,0,1,4.7.46A23.52,23.52,0,0,1,98.47,90l-1.89,7.26a23.37,23.37,0,0,0-2.81-.85A14.4,14.4,0,0,0,90.35,96a7.24,7.24,0,0,0-6,2.5,10.33,10.33,0,0,0-2,6.59,10.67,10.67,0,0,0,1.86,6.71q1.86,2.38,6.5,2.38a21.57,21.57,0,0,0,3.54-.31,14.6,14.6,0,0,0,3.47-1L99,120.33a21.15,21.15,0,0,1-4,1.16,26.62,26.62,0,0,1-5.25.49,19.82,19.82,0,0,1-7.56-1.31A14.42,14.42,0,0,1,77,117.1a14,14,0,0,1-3-5.34A22.33,22.33,0,0,1,73.09,105.08Z"/><path class="cls-1" d="M114.2,100.56c.9-1,1.82-2,2.78-3s1.87-2.09,2.77-3.13,1.74-2,2.53-2.94l2-2.42h10.81q-3.24,3.7-6.32,7.09t-6.74,7a41.35,41.35,0,0,1,3.78,3.94c1.31,1.53,2.57,3.1,3.79,4.73S132,115,133,116.66s1.87,3.12,2.56,4.46H125.1q-1-1.59-2.22-3.51c-.83-1.29-1.71-2.57-2.65-3.86s-1.92-2.51-3-3.69a24.53,24.53,0,0,0-3.08-3v14.06h-9.09V75.25l9.09-1.46Z"/><path class="cls-1" d="M165.93,117.1q0,7.86-4,11.68c-2.67,2.54-6.78,3.81-12.36,3.81a33,33,0,0,1-5.85-.52,35.89,35.89,0,0,1-5.43-1.37l1.58-7.62a28.15,28.15,0,0,0,4.49,1.34,26.69,26.69,0,0,0,5.34.49q3.9,0,5.52-1.71a6.18,6.18,0,0,0,1.61-4.4v-1.15a14.66,14.66,0,0,1-3,1,15.55,15.55,0,0,1-3.38.34q-6.66,0-10.19-3.94t-3.54-11a18,18,0,0,1,1.1-6.43,13.69,13.69,0,0,1,3.2-5,14.34,14.34,0,0,1,5.16-3.21,19.8,19.8,0,0,1,6.89-1.12q1.65,0,3.39.15c1.16.1,2.3.23,3.44.39s2.23.36,3.27.58,2,.46,2.77.7ZM146,104q0,7.63,6.17,7.63a8.87,8.87,0,0,0,2.62-.37,10.1,10.1,0,0,0,2.07-.85V95.93c-.45-.08-1-.15-1.58-.21s-1.33-.09-2.14-.09A6.27,6.27,0,0,0,147.75,98,9.86,9.86,0,0,0,146,104Z"/><path class="cls-1" d="M193.81,97.09c-.82-.2-1.77-.42-2.87-.64a18,18,0,0,0-3.54-.34,15,15,0,0,0-2,.16,12.38,12.38,0,0,0-1.8.33v24.52h-9.09V90.75a54.89,54.89,0,0,1,5.77-1.62,33,33,0,0,1,7.41-.76q.72,0,1.77.09t2.07.24c.69.1,1.38.23,2.07.37a9.16,9.16,0,0,1,1.77.52Z"/><path class="cls-1" d="M229.62,105a20.88,20.88,0,0,1-1.1,6.92,14.85,14.85,0,0,1-3.18,5.37,14.42,14.42,0,0,1-5,3.45,17.74,17.74,0,0,1-12.93,0,14.42,14.42,0,0,1-5-3.45,15.69,15.69,0,0,1-3.23-5.37,19.67,19.67,0,0,1-1.16-6.92,19,19,0,0,1,1.19-6.89,15.54,15.54,0,0,1,3.29-5.31,14.79,14.79,0,0,1,5-3.42,17.11,17.11,0,0,1,12.69,0,14.48,14.48,0,0,1,5,3.42,15.44,15.44,0,0,1,3.24,5.31A19.65,19.65,0,0,1,229.62,105Zm-9.28,0a11.5,11.5,0,0,0-1.67-6.62A5.49,5.49,0,0,0,213.88,96a5.55,5.55,0,0,0-4.82,2.41,11.27,11.27,0,0,0-1.71,6.62,11.56,11.56,0,0,0,1.71,6.68,5.51,5.51,0,0,0,4.82,2.47,5.45,5.45,0,0,0,4.79-2.47A11.79,11.79,0,0,0,220.34,105Z"/><path class="cls-1" d="M264,120a50.88,50.88,0,0,1-6,1.26,49.88,49.88,0,0,1-7.68.57,18.33,18.33,0,0,1-6.81-1.09,10.42,10.42,0,0,1-4.3-3.08A12,12,0,0,1,237,113a25.28,25.28,0,0,1-.67-6V89h9.08v16.77c0,2.93.39,5,1.16,6.35s2.22,2,4.33,2c.65,0,1.35,0,2.08-.09s1.38-.14,2-.22V89H264Z"/><path class="cls-1" d="M272.56,90.13a52.81,52.81,0,0,1,6-1.25,49.88,49.88,0,0,1,7.68-.57,18.74,18.74,0,0,1,6.8,1.06,10.16,10.16,0,0,1,4.3,3A11.77,11.77,0,0,1,299.58,97a24.53,24.53,0,0,1,.67,6v18.11h-9.09v-17c0-2.92-.38-5-1.16-6.22s-2.21-1.83-4.33-1.83q-1,0-2.07.09c-.73.06-1.38.14-2,.22v24.76h-9.09Z"/><path class="cls-1" d="M336.79,120.09c-.81.24-1.75.47-2.81.7s-2.16.41-3.32.58-2.34.29-3.54.39-2.35.16-3.44.16a20.22,20.22,0,0,1-7.08-1.16,13.91,13.91,0,0,1-8.51-8.57,20.11,20.11,0,0,1-1.13-6.93,23.67,23.67,0,0,1,1-7,15.24,15.24,0,0,1,2.8-5.34,12.16,12.16,0,0,1,4.49-3.36,15.07,15.07,0,0,1,6.07-1.15,14.42,14.42,0,0,1,3.38.36,18.65,18.65,0,0,1,3,1V75.25l9.09-1.46Zm-20.56-15.25a11.15,11.15,0,0,0,1.89,6.77,6.56,6.56,0,0,0,5.62,2.56q1.22,0,2.25-.09a16.25,16.25,0,0,0,1.71-.22V97.33a8,8,0,0,0-2.22-.91,10.57,10.57,0,0,0-2.78-.37Q316.24,96.05,316.23,104.84Z"/></g></g></svg>