<svg xmlns="http://www.w3.org/2000/svg" viewBox="0 0 352.54 49.28"><defs><style>.cls-1{fill:none;stroke:#1d1d1b;stroke-miterlimit:10;}</style></defs><g id="Livello_2" data-name="Livello 2"><g id="Livello_1-2" data-name="Livello 1"><path class="cls-1" d="M13.19,5.16q9.45,0,14.52,3.33t5.06,10.89q0,7.62-5.13,11T13,33.77H10V47.92H.5V6.26a52.6,52.6,0,0,1,6.59-.85Q10.57,5.16,13.19,5.16Zm.61,8.12c-.69,0-1.37,0-2.05.06L10,13.46v12.2h3q5,0,7.45-1.34c1.66-.9,2.5-2.57,2.5-5a6,6,0,0,0-.64-2.92,4.81,4.81,0,0,0-1.83-1.86,8.19,8.19,0,0,0-2.9-1A24.33,24.33,0,0,0,13.8,13.28Z"/><path class="cls-1" d="M66.56,46.82a50.43,50.43,0,0,1-6,1.26,49.88,49.88,0,0,1-7.68.57,18.28,18.28,0,0,1-6.8-1.09,10.36,10.36,0,0,1-4.3-3.08,12,12,0,0,1-2.26-4.73,25.28,25.28,0,0,1-.67-6V15.84H48V32.61c0,2.93.38,5,1.16,6.35s2.21,1.95,4.33,1.95q1,0,2.07-.09c.73-.06,1.38-.13,1.95-.22V15.84h9.09Z"/><path class="cls-1" d="M104.93,31.88a20.3,20.3,0,0,1-1.13,7,14.61,14.61,0,0,1-3.26,5.31,14.3,14.3,0,0,1-5.25,3.39,19.74,19.74,0,0,1-7.07,1.19c-1.1,0-2.25-.06-3.45-.16s-2.38-.23-3.54-.39-2.27-.36-3.32-.58-2-.46-2.81-.7V2.05L84.19.59v16a17.3,17.3,0,0,1,3.17-1,16.59,16.59,0,0,1,3.54-.36,14.37,14.37,0,0,1,6,1.19,11.81,11.81,0,0,1,4.39,3.38A15.22,15.22,0,0,1,104,25,24,24,0,0,1,104.93,31.88Zm-9.27-.24q0-8.79-6.47-8.79a10.44,10.44,0,0,0-2.77.37,7.93,7.93,0,0,0-2.23.91V40.66a16.25,16.25,0,0,0,1.71.22c.69.06,1.44.09,2.26.09a6.52,6.52,0,0,0,5.61-2.56A11.15,11.15,0,0,0,95.66,31.64Z"/><path class="cls-1" d="M124.76,48.53a22.67,22.67,0,0,1-6.44-.85,9.43,9.43,0,0,1-3.9-2.23,7.36,7.36,0,0,1-2-3.47,19.13,19.13,0,0,1-.51-4.61V2.05L121,.59V35.54a12.24,12.24,0,0,0,.18,2.2,3.65,3.65,0,0,0,.7,1.64,3.61,3.61,0,0,0,1.49,1.1A8,8,0,0,0,126,41Z"/><path class="cls-1" d="M141.16,6.56a5,5,0,0,1-1.61,3.94,5.8,5.8,0,0,1-7.63,0,5,5,0,0,1-1.61-3.94,5,5,0,0,1,1.61-3.93,5.8,5.8,0,0,1,7.63,0A5,5,0,0,1,141.16,6.56Zm-.85,41.36h-9.09V15.84h9.09Z"/><path class="cls-1" d="M147.32,31.88a19,19,0,0,1,1.13-6.56,15.47,15.47,0,0,1,8.45-9,17.18,17.18,0,0,1,7-1.34,22.07,22.07,0,0,1,4.69.46,23,23,0,0,1,4.15,1.31L170.81,24a22.83,22.83,0,0,0-2.81-.85,14.25,14.25,0,0,0-3.41-.37c-2.69,0-4.69.84-6,2.5a10.33,10.33,0,0,0-2,6.59,10.67,10.67,0,0,0,1.86,6.71Q160.32,41,165,41a21.57,21.57,0,0,0,3.54-.31,14.82,14.82,0,0,0,3.48-1l1.28,7.44a21.5,21.5,0,0,1-4,1.16,26.45,26.45,0,0,1-5.24.49,19.68,19.68,0,0,1-7.57-1.32,14.23,14.23,0,0,1-5.21-3.56,14,14,0,0,1-3-5.34A22.66,22.66,0,0,1,147.32,31.88Z"/><path class="cls-1" d="M189.35,15a21,21,0,0,1,6.71.92,10.35,10.35,0,0,1,4.3,2.62,9.64,9.64,0,0,1,2.29,4.15,20.39,20.39,0,0,1,.67,5.43V47c-1.3.28-3.11.62-5.43,1a51.61,51.61,0,0,1-8.41.58,26.47,26.47,0,0,1-5.65-.55,12.24,12.24,0,0,1-4.36-1.79,8.29,8.29,0,0,1-2.8-3.27,11.13,11.13,0,0,1-1-4.94,9.42,9.42,0,0,1,1.13-4.76,8.74,8.74,0,0,1,3-3.11,13.77,13.77,0,0,1,4.33-1.68,24.6,24.6,0,0,1,5.06-.51,29.11,29.11,0,0,1,3.14.15,13,13,0,0,1,2.23.4v-.86A5.06,5.06,0,0,0,193.2,24c-.94-.94-2.57-1.4-4.88-1.4a31.66,31.66,0,0,0-4.58.33,19.89,19.89,0,0,0-3.9.95l-1.16-7.32c.53-.16,1.19-.34,2-.52s1.66-.35,2.59-.49,1.92-.26,3-.37S188.3,15,189.35,15Zm.74,26.6c.89,0,1.74,0,2.56-.06a18.21,18.21,0,0,0,1.95-.18v-6.9q-.56-.12-1.65-.24a18.56,18.56,0,0,0-2-.12,18.34,18.34,0,0,0-2.41.15,6.12,6.12,0,0,0-2,.58A3.31,3.31,0,0,0,185.21,36a3.18,3.18,0,0,0-.49,1.83,3.13,3.13,0,0,0,1.43,3A8.05,8.05,0,0,0,190.09,41.58Z"/><path class="cls-1" d="M211.25,7.85l9.09-1.47v9.46h10.92V23.4H220.34V34.69a9,9,0,0,0,1,4.57q1,1.71,4.05,1.71a16.64,16.64,0,0,0,3-.28,14.87,14.87,0,0,0,2.84-.76L232.54,47a26.29,26.29,0,0,1-3.66,1.16,21.66,21.66,0,0,1-4.94.48,16.3,16.3,0,0,1-6.16-1,9.58,9.58,0,0,1-3.9-2.81,10.43,10.43,0,0,1-2-4.36,25.54,25.54,0,0,1-.58-5.67Z"/><path class="cls-1" d="M248.58,6.56A5,5,0,0,1,247,10.5a5.8,5.8,0,0,1-7.63,0,5,5,0,0,1-1.61-3.94,5,5,0,0,1,1.61-3.93,5.8,5.8,0,0,1,7.63,0A5,5,0,0,1,248.58,6.56Zm-.85,41.36h-9.09V15.84h9.09Z"/><path class="cls-1" d="M286.28,31.82a20.63,20.63,0,0,1-1.1,6.92A15,15,0,0,1,282,44.11a14.28,14.28,0,0,1-5,3.45,16.66,16.66,0,0,1-6.5,1.22,16.45,16.45,0,0,1-6.43-1.22,14.28,14.28,0,0,1-5-3.45,15.55,15.55,0,0,1-3.24-5.37,19.9,19.9,0,0,1-1.16-6.92,19.2,19.2,0,0,1,1.19-6.89,15.56,15.56,0,0,1,3.3-5.31,14.79,14.79,0,0,1,5-3.42A16.13,16.13,0,0,1,270.54,15a16.34,16.34,0,0,1,6.38,1.22,14.48,14.48,0,0,1,5,3.42,15.42,15.42,0,0,1,3.23,5.31A19.65,19.65,0,0,1,286.28,31.82Zm-9.27,0a11.42,11.42,0,0,0-1.68-6.62,5.48,5.48,0,0,0-4.79-2.41,5.56,5.56,0,0,0-4.82,2.41,11.27,11.27,0,0,0-1.7,6.62,11.56,11.56,0,0,0,1.7,6.68A5.52,5.52,0,0,0,270.54,41a5.43,5.43,0,0,0,4.79-2.47A11.71,11.71,0,0,0,277,31.82Z"/><path class="cls-1" d="M293.29,16.94a50.88,50.88,0,0,1,6-1.26,50,50,0,0,1,7.69-.57,18.78,18.78,0,0,1,6.8,1.06,10.23,10.23,0,0,1,4.3,3,11.77,11.77,0,0,1,2.26,4.64,24.53,24.53,0,0,1,.67,6V47.92H311.9v-17c0-2.92-.39-5-1.16-6.22s-2.22-1.83-4.33-1.83q-1,0-2.07.09c-.74.06-1.39.14-2,.22V47.92h-9.09Z"/><path class="cls-1" d="M338.44,41.4a9.14,9.14,0,0,0,3.53-.49A1.9,1.9,0,0,0,343,39a2.31,2.31,0,0,0-1.34-1.92,26.37,26.37,0,0,0-4.09-1.87,39.89,39.89,0,0,1-3.87-1.64,11.19,11.19,0,0,1-3-2.05,8.13,8.13,0,0,1-1.89-2.83,10.47,10.47,0,0,1-.67-4,8.55,8.55,0,0,1,3.35-7.13Q334.9,15,340.75,15a30,30,0,0,1,5.62.52,26.09,26.09,0,0,1,4.26,1.13l-1.58,7.08a31.58,31.58,0,0,0-3.45-1,19,19,0,0,0-4.18-.43c-2.84,0-4.27.8-4.27,2.38a2.35,2.35,0,0,0,.19,1,2,2,0,0,0,.73.82,10.25,10.25,0,0,0,1.49.86c.63.31,1.44.65,2.41,1a37,37,0,0,1,4.94,2.19A11.64,11.64,0,0,1,350,32.86a7,7,0,0,1,1.59,2.77,12.09,12.09,0,0,1,.46,3.53,8.12,8.12,0,0,1-3.57,7.18q-3.57,2.43-10.1,2.44a28.85,28.85,0,0,1-7.1-.74,27.6,27.6,0,0,1-3.94-1.22l1.53-7.38a30,30,0,0,0,4.76,1.44A23.46,23.46,0,0,0,338.44,41.4Z"/></g></g></svg>