<svg xmlns="http://www.w3.org/2000/svg" viewBox="0 0 257.44 49.28"><defs><style>.cls-1{fill:none;stroke:#1d1d1b;stroke-miterlimit:10;}</style></defs><g id="Livello_2" data-name="Livello 2"><g id="Livello_1-2" data-name="Livello 1"><path class="cls-1" d="M12.88,5.16q9.53,0,14.58,3.39t5.06,10.52a11.91,11.91,0,0,1-2,7.23,13.43,13.43,0,0,1-5.89,4.36c.86,1.06,1.75,2.27,2.69,3.63s1.86,2.79,2.77,4.27,1.8,3,2.66,4.64,1.64,3.18,2.38,4.72H24.45c-.78-1.38-1.56-2.78-2.36-4.21s-1.61-2.8-2.45-4.14S18,37,17.16,35.75a39.54,39.54,0,0,0-2.45-3.26H10V47.92H.5V6.26a52.63,52.63,0,0,1,6.44-.85Q10.26,5.16,12.88,5.16Zm.55,8.12q-1,0-1.86.06L10,13.46V24.93H12.7q5.37,0,7.69-1.35A4.84,4.84,0,0,0,22.7,19a4.65,4.65,0,0,0-2.34-4.42A14.5,14.5,0,0,0,13.43,13.28Z"/><path class="cls-1" d="M37.53,32.12a19.54,19.54,0,0,1,1.31-7.47,16,16,0,0,1,3.45-5.34,14.22,14.22,0,0,1,4.91-3.23A15.41,15.41,0,0,1,52.9,15q6.83,0,10.8,4.18t4,12.29q0,.8-.06,1.74t-.12,1.68H46.86a6,6,0,0,0,2.62,4.45A10.55,10.55,0,0,0,55.71,41a25.93,25.93,0,0,0,4.91-.46,18.2,18.2,0,0,0,3.93-1.13l1.22,7.38a12.65,12.65,0,0,1-1.95.74c-.82.24-1.72.45-2.72.64s-2.06.33-3.2.45a30.11,30.11,0,0,1-3.41.19A20.35,20.35,0,0,1,47,47.5,14.93,14.93,0,0,1,41.64,44a14,14,0,0,1-3.11-5.28A20.92,20.92,0,0,1,37.53,32.12Zm21.35-3.47a9.57,9.57,0,0,0-.4-2.26,5.56,5.56,0,0,0-1-1.95A5.27,5.27,0,0,0,55.67,23,5.68,5.68,0,0,0,53,22.49,6.15,6.15,0,0,0,50.4,23a5.53,5.53,0,0,0-1.83,1.38,6,6,0,0,0-1.13,2,12.4,12.4,0,0,0-.58,2.29Z"/><path class="cls-1" d="M83.89,41.4a9.14,9.14,0,0,0,3.53-.49,1.88,1.88,0,0,0,1-1.89,2.31,2.31,0,0,0-1.34-1.92A25.17,25.17,0,0,0,83,35.24q-2.13-.8-3.87-1.65a11.19,11.19,0,0,1-3-2.05,8.27,8.27,0,0,1-1.89-2.83,10.47,10.47,0,0,1-.67-4A8.58,8.58,0,0,1,77,17.61Q80.35,15,86.21,15a30,30,0,0,1,5.61.52,26.25,26.25,0,0,1,4.27,1.13L94.5,23.71a31.58,31.58,0,0,0-3.45-1,19,19,0,0,0-4.17-.43c-2.85,0-4.27.8-4.27,2.38a2.52,2.52,0,0,0,.18,1,2.1,2.1,0,0,0,.73.82,9.9,9.9,0,0,0,1.5.86c.63.31,1.43.65,2.4,1a37.19,37.19,0,0,1,5,2.19,11.8,11.8,0,0,1,3.08,2.32A7.15,7.15,0,0,1,97,35.63a12.09,12.09,0,0,1,.46,3.53,8.12,8.12,0,0,1-3.57,7.18q-3.57,2.43-10.09,2.44A28.88,28.88,0,0,1,76.72,48a28.62,28.62,0,0,1-3.93-1.21l1.52-7.39a30.36,30.36,0,0,0,4.76,1.44A23.46,23.46,0,0,0,83.89,41.4Z"/><path class="cls-1" d="M102.74,32.12a19.54,19.54,0,0,1,1.31-7.47,16.12,16.12,0,0,1,3.44-5.34,14.41,14.41,0,0,1,4.91-3.23,15.46,15.46,0,0,1,5.71-1.1q6.83,0,10.79,4.18t4,12.29q0,.8-.06,1.74t-.12,1.68H112.07a6,6,0,0,0,2.62,4.45A10.54,10.54,0,0,0,120.91,41a25.78,25.78,0,0,0,4.91-.46,18.14,18.14,0,0,0,3.94-1.13L131,46.76a12.65,12.65,0,0,1-1.95.74c-.82.24-1.72.45-2.72.64s-2.06.33-3.2.45a30.15,30.15,0,0,1-3.42.19,20.29,20.29,0,0,1-7.53-1.28A14.84,14.84,0,0,1,106.85,44a14,14,0,0,1-3.11-5.28A20.92,20.92,0,0,1,102.74,32.12Zm21.34-3.47a9.55,9.55,0,0,0-.39-2.26,5.72,5.72,0,0,0-1-1.95,5.47,5.47,0,0,0-1.77-1.4,5.68,5.68,0,0,0-2.65-.55,6.15,6.15,0,0,0-2.62.51,5.33,5.33,0,0,0-1.83,1.38,6,6,0,0,0-1.13,2,12.4,12.4,0,0,0-.58,2.29Z"/><path class="cls-1" d="M151.41,15a21,21,0,0,1,6.71.92,10.35,10.35,0,0,1,4.3,2.62,9.64,9.64,0,0,1,2.29,4.15,20.39,20.39,0,0,1,.67,5.43V47c-1.3.28-3.11.62-5.43,1a51.61,51.61,0,0,1-8.41.58,26.47,26.47,0,0,1-5.65-.55,12.24,12.24,0,0,1-4.36-1.79,8.29,8.29,0,0,1-2.8-3.27,11.13,11.13,0,0,1-1-4.94,9.32,9.32,0,0,1,1.13-4.76,8.74,8.74,0,0,1,3-3.11,13.77,13.77,0,0,1,4.33-1.68,24.6,24.6,0,0,1,5.06-.51,29.11,29.11,0,0,1,3.14.15,13,13,0,0,1,2.23.4v-.86a5.06,5.06,0,0,0-1.4-3.72c-.94-.94-2.57-1.4-4.88-1.4a31.66,31.66,0,0,0-4.58.33,19.89,19.89,0,0,0-3.9.95l-1.16-7.32c.53-.16,1.19-.34,2-.52s1.66-.35,2.59-.49,1.92-.26,3-.36A29.88,29.88,0,0,1,151.41,15Zm.74,26.6c.89,0,1.74,0,2.56-.06a18.21,18.21,0,0,0,1.95-.18v-6.9q-.56-.12-1.65-.24a18.56,18.56,0,0,0-2-.12,18.34,18.34,0,0,0-2.41.15,6.12,6.12,0,0,0-2,.58A3.31,3.31,0,0,0,147.27,36a3.2,3.2,0,0,0-.49,1.83,3.11,3.11,0,0,0,1.43,3A8.05,8.05,0,0,0,152.15,41.58Z"/><path class="cls-1" d="M193,23.89c-.81-.2-1.77-.42-2.86-.64a18,18,0,0,0-3.54-.34,15.26,15.26,0,0,0-2.05.16,11.94,11.94,0,0,0-1.79.33V47.92h-9.09V17.54a56.62,56.62,0,0,1,5.76-1.61,33.16,33.16,0,0,1,7.41-.76q.74,0,1.77.09c.69.06,1.38.14,2.08.24s1.38.23,2.07.37a9.16,9.16,0,0,1,1.77.52Z"/><path class="cls-1" d="M197.22,31.88a19,19,0,0,1,1.13-6.56,15.41,15.41,0,0,1,8.45-9A17,17,0,0,1,213.75,15a22.77,22.77,0,0,1,4.7.46,23,23,0,0,1,4.15,1.31L220.71,24a23.37,23.37,0,0,0-2.81-.85,14.25,14.25,0,0,0-3.41-.37c-2.69,0-4.69.84-6,2.5a10.33,10.33,0,0,0-2,6.59,10.67,10.67,0,0,0,1.86,6.71Q210.22,41,214.85,41a21.57,21.57,0,0,0,3.54-.31,14.82,14.82,0,0,0,3.48-1l1.28,7.44a21.5,21.5,0,0,1-4,1.16,26.45,26.45,0,0,1-5.24.49,19.87,19.87,0,0,1-7.57-1.31,14.38,14.38,0,0,1-5.21-3.57,13.9,13.9,0,0,1-3-5.34A22.66,22.66,0,0,1,197.22,31.88Z"/><path class="cls-1" d="M229.25,47.92V2.05L238.34.59V16a18.72,18.72,0,0,1,2.35-.58,14.92,14.92,0,0,1,2.77-.27,17.23,17.23,0,0,1,6.5,1.06,10.1,10.1,0,0,1,4.15,3,11.67,11.67,0,0,1,2.19,4.64,25.62,25.62,0,0,1,.64,6V47.92h-9.09v-17c0-2.92-.37-5-1.13-6.22s-2.14-1.83-4.17-1.83a11.06,11.06,0,0,0-2.29.22q-1.06.21-1.92.45v24.4Z"/></g></g></svg>