<svg xmlns="http://www.w3.org/2000/svg" viewBox="0 0 253.96 59.89"><defs><style>.cls-1{fill:none;stroke:#1d1d1b;stroke-miterlimit:10;}</style></defs><g id="Livello_2" data-name="Livello 2"><g id="Livello_1-2" data-name="Livello 1"><path class="cls-1" d="M35.51,5.65v8.11H22.76V47.92H13.25V13.76H.5V5.65Z"/><path class="cls-1" d="M34.9,32.12a19.74,19.74,0,0,1,1.31-7.47,16.3,16.3,0,0,1,3.45-5.34,14.32,14.32,0,0,1,4.91-3.23A15.42,15.42,0,0,1,50.28,15q6.82,0,10.79,4.18t4,12.29q0,.8-.06,1.74c0,.63-.09,1.19-.13,1.68H44.24a6,6,0,0,0,2.62,4.45A10.52,10.52,0,0,0,53.08,41,25.86,25.86,0,0,0,58,40.51a18.14,18.14,0,0,0,3.94-1.13l1.22,7.38a12.42,12.42,0,0,1-2,.74c-.81.24-1.71.45-2.71.64s-2.06.33-3.2.45a30.15,30.15,0,0,1-3.42.19,20.26,20.26,0,0,1-7.53-1.28A14.75,14.75,0,0,1,39,44a14,14,0,0,1-3.11-5.28A20.92,20.92,0,0,1,34.9,32.12Zm21.35-3.47a9.55,9.55,0,0,0-.39-2.26,5.72,5.72,0,0,0-1-1.95A5.63,5.63,0,0,0,53.05,23a5.85,5.85,0,0,0-2.65-.54,6.23,6.23,0,0,0-2.63.51,5.53,5.53,0,0,0-1.83,1.38,6.21,6.21,0,0,0-1.12,2,12.4,12.4,0,0,0-.58,2.29Z"/><path class="cls-1" d="M83.58,15a21,21,0,0,1,6.71.92,10.41,10.41,0,0,1,4.3,2.62,9.64,9.64,0,0,1,2.29,4.15,20.39,20.39,0,0,1,.67,5.43V47c-1.3.28-3.11.62-5.43,1a51.74,51.74,0,0,1-8.42.58A26.44,26.44,0,0,1,78.06,48a12.17,12.17,0,0,1-4.36-1.79A8.31,8.31,0,0,1,70.89,43a11.27,11.27,0,0,1-1-4.94,9.32,9.32,0,0,1,1.13-4.76,8.58,8.58,0,0,1,3-3.11,13.77,13.77,0,0,1,4.33-1.68A24.6,24.6,0,0,1,83.46,28a29.11,29.11,0,0,1,3.14.15,14.16,14.16,0,0,1,2.23.39v-.85A5,5,0,0,0,87.42,24c-.93-.94-2.56-1.4-4.88-1.4a31.52,31.52,0,0,0-4.57.33,19.54,19.54,0,0,0-3.9.95l-1.16-7.32c.52-.16,1.19-.34,2-.52s1.65-.35,2.59-.49,1.92-.26,3-.36A29.74,29.74,0,0,1,83.58,15Zm.73,26.6c.9,0,1.75,0,2.57-.06a18.21,18.21,0,0,0,2-.18v-6.9q-.56-.12-1.65-.24a18.56,18.56,0,0,0-2-.12,18.23,18.23,0,0,0-2.41.15,6,6,0,0,0-2,.58A3.4,3.4,0,0,0,79.43,36,3.26,3.26,0,0,0,79,37.8a3.11,3.11,0,0,0,1.43,3A8,8,0,0,0,84.31,41.58Z"/><path class="cls-1" d="M104.26,31.88a18.77,18.77,0,0,1,1.13-6.56,15.31,15.31,0,0,1,8.45-9,17.16,17.16,0,0,1,7-1.34,22.84,22.84,0,0,1,4.7.46,23.52,23.52,0,0,1,4.15,1.31L127.75,24a23.37,23.37,0,0,0-2.81-.85,14.4,14.4,0,0,0-3.42-.37,7.23,7.23,0,0,0-6,2.5,10.33,10.33,0,0,0-2,6.59,10.67,10.67,0,0,0,1.86,6.71q1.86,2.38,6.5,2.38a21.57,21.57,0,0,0,3.54-.31,14.6,14.6,0,0,0,3.47-1l1.28,7.44a21.15,21.15,0,0,1-4,1.16,26.62,26.62,0,0,1-5.25.49,19.82,19.82,0,0,1-7.56-1.31,14.42,14.42,0,0,1-5.22-3.57,13.88,13.88,0,0,1-3-5.34A22.33,22.33,0,0,1,104.26,31.88Z"/><path class="cls-1" d="M136.28,47.92V2.05L145.37.59V16a19.18,19.18,0,0,1,2.35-.58,15,15,0,0,1,2.78-.27A17.14,17.14,0,0,1,157,16.17a10,10,0,0,1,4.15,3,11.68,11.68,0,0,1,2.2,4.64,25.62,25.62,0,0,1,.64,6V47.92h-9.09v-17c0-2.92-.38-5-1.13-6.22s-2.14-1.83-4.18-1.83a11.19,11.19,0,0,0-2.29.22q-1.06.21-1.92.45v24.4Z"/><path class="cls-1" d="M182.16,6.56a5,5,0,0,1-1.62,3.94,5.79,5.79,0,0,1-7.62,0,5,5,0,0,1-1.62-3.94,5,5,0,0,1,1.62-3.93,5.79,5.79,0,0,1,7.62,0A5,5,0,0,1,182.16,6.56Zm-.86,41.36h-9.09V15.84h9.09Z"/><path class="cls-1" d="M189.84,16.94a50.88,50.88,0,0,1,6-1.26,49.88,49.88,0,0,1,7.68-.57,18.8,18.8,0,0,1,6.81,1.06,10.23,10.23,0,0,1,4.3,3,11.76,11.76,0,0,1,2.25,4.64,24.51,24.51,0,0,1,.68,6V47.92h-9.09v-17c0-2.92-.39-5-1.16-6.22s-2.22-1.83-4.33-1.83c-.65,0-1.35,0-2.08.09s-1.38.14-1.95.22V47.92h-9.09Z"/><path class="cls-1" d="M253.46,43.9q0,7.86-4,11.68t-12.35,3.81a33.07,33.07,0,0,1-5.86-.52,35.89,35.89,0,0,1-5.43-1.37l1.59-7.62a27.72,27.72,0,0,0,4.48,1.34,26.83,26.83,0,0,0,5.34.49c2.6,0,4.44-.58,5.52-1.71a6.12,6.12,0,0,0,1.62-4.39V44.45a15.06,15.06,0,0,1-3,1,15.7,15.7,0,0,1-3.39.34q-6.65,0-10.19-3.94t-3.53-11a18,18,0,0,1,1.09-6.43,13.71,13.71,0,0,1,3.21-5,14.3,14.3,0,0,1,5.15-3.21,19.8,19.8,0,0,1,6.89-1.12q1.65,0,3.39.15c1.16.1,2.31.23,3.44.39s2.23.36,3.27.58,2,.46,2.77.71ZM233.52,30.84q0,7.64,6.16,7.63a8.87,8.87,0,0,0,2.62-.37,10.44,10.44,0,0,0,2.08-.85V22.73q-.67-.12-1.59-.21c-.61-.06-1.32-.1-2.14-.1a6.24,6.24,0,0,0-5.36,2.38A9.86,9.86,0,0,0,233.52,30.84Z"/></g></g></svg>